%FSTAX23Y23*%
%MOIN*%
%SFA1B1*%

%IPPOS*%
%ADD10R,0.068898X0.030000*%
%ADD11R,0.022000X0.050000*%
%ADD12R,0.080000X0.074000*%
%ADD13R,0.066929X0.043307*%
%ADD14C,0.050000*%
%ADD15C,0.010000*%
%ADD16C,0.060000*%
%LNbattery_3.7_pcb_copper_signal_top-1*%
%LPD*%
G54D10*
X047Y02459D03*
Y02341D03*
X051Y02459D03*
Y02341D03*
X062Y02459D03*
Y02341D03*
X058Y02459D03*
Y02341D03*
X063Y02059D03*
Y01941D03*
X06Y02059D03*
Y01941D03*
X057Y02059D03*
Y01941D03*
X051Y01559D03*
Y01441D03*
G54D11*
X054Y024D03*
X05436Y02324D03*
X05363D03*
G54D12*
X048Y01911D03*
Y02089D03*
X055Y01411D03*
Y01589D03*
G54D13*
X048Y01553D03*
Y01446D03*
X059Y01553D03*
Y01446D03*
G54D14*
X048Y01805D02*
Y01911D01*
Y01733D02*
Y01805D01*
X047Y02341D02*
X0481D01*
X0546Y02331D02*
Y02513D01*
Y02324D02*
Y02331D01*
X05588Y02459*
X05453Y02324D02*
X0546Y02331D01*
X057Y01941D02*
X0595D01*
X05176Y02452D02*
X054Y02434D01*
X051Y02459D02*
X05176Y02452D01*
X05285Y02344*
X0517Y02459D02*
X05176Y02452D01*
X0575Y02059D02*
X06D01*
X0481Y02341D02*
X04875Y02276D01*
Y01936D02*
Y02276D01*
X048Y01911D02*
X04875Y01936D01*
X05436Y02324D02*
X05453D01*
X0546*
X05173Y028D02*
X0546Y02513D01*
X047Y028D02*
X05173D01*
X0595Y01941D02*
X06D01*
X059Y01891D02*
X0595Y01941D01*
X059Y01553D02*
Y01891D01*
X05363Y02018D02*
Y02324D01*
Y02018D02*
X05441Y01941D01*
X057*
X0513Y01589D02*
X055D01*
X051Y01559D02*
X0513Y01589D01*
X051Y02459D02*
X0517D01*
X05285Y02012D02*
Y02344D01*
Y02012D02*
X05624Y01673D01*
Y01529D02*
Y01673D01*
X05607Y01512D02*
X05624Y01529D01*
X0545Y01512D02*
X05607D01*
X05425Y01487D02*
X0545Y01512D01*
X05425Y01344D02*
Y01487D01*
Y01344D02*
X0545Y01319D01*
X05713*
X05841Y01446*
X059*
X054Y024D02*
Y02434D01*
X058Y02109D02*
Y02341D01*
X0575Y02059D02*
X058Y02109D01*
X057Y02059D02*
X0575D01*
X062Y02109D02*
Y02341D01*
Y02109D02*
X0625Y02059D01*
X063*
X05862Y01553D02*
X059D01*
X0572Y01411D02*
X05862Y01553D01*
X055Y01411D02*
X0572D01*
X062Y02459D02*
X064D01*
X065Y02359*
Y02D02*
Y02359D01*
X045Y02189D02*
Y028D01*
Y02189D02*
X046Y02089D01*
X048*
X04728Y01733D02*
X048Y01805D01*
X04728Y014D02*
Y01733D01*
Y014D02*
X04899Y01229D01*
X06029*
X065Y017*
X04756Y01446D02*
X048D01*
X04728Y01475D02*
X04756Y01446D01*
X04728Y01475D02*
Y01661D01*
X048Y01733*
X04913Y01441D02*
X051D01*
X04801Y01553D02*
X04913Y01441D01*
X048Y01553D02*
X04801D01*
X05588Y02459D02*
X058D01*
X0481Y02341D02*
X051D01*
X058Y02459D02*
X062D01*
X06Y01941D02*
X063D01*
X047Y02459D02*
X051D01*
X06Y02059D02*
X0625D01*
G54D15*
X044Y031D02*
X06694D01*
X067Y03094*
X06694Y01D02*
X067Y01005D01*
X044Y01D02*
X06694D01*
X067Y01005D02*
Y03094D01*
X044Y01D02*
Y031D01*
G54D16*
X065Y02D03*
Y017D03*
X045Y028D03*
X047D03*
M02*