%FSTAX23Y23*%
%MOIN*%
%SFA1B1*%

%IPPOS*%
%ADD18C,0.006000*%
%ADD23C,0.003937*%
%LNbattery_3.7_pcb_mechanical_15-1*%
%LPD*%
G36*
X06244Y02316D02*
X06155D01*
Y02484*
X06244*
Y02316*
G37*
G36*
X05844D02*
X05755D01*
Y02484*
X05844*
Y02316*
G37*
G36*
X05144D02*
X05055D01*
Y02484*
X05144*
Y02316*
G37*
G36*
X04744D02*
X04655D01*
Y02484*
X04744*
Y02316*
G37*
G36*
X05421Y02399D02*
X05469D01*
Y02324*
X05457*
Y02289*
X05342*
Y02324*
X05331*
Y02399*
X05379*
Y02435*
X05421*
Y02399*
G37*
G36*
X06344Y01916D02*
X06255D01*
Y02084*
X06344*
Y01916*
G37*
G36*
X06044D02*
X05955D01*
Y02084*
X06044*
Y01916*
G37*
G36*
X05744D02*
X05655D01*
Y02084*
X05744*
Y01916*
G37*
G36*
X04865Y01864D02*
X04734D01*
Y02136*
X04865*
Y01864*
G37*
G36*
X05144Y01416D02*
X05055D01*
Y01584*
X05144*
Y01416*
G37*
G36*
X05565Y01364D02*
X05434D01*
Y01636*
X05565*
Y01364*
G37*
G54D18*
X04744Y02316D02*
Y02484D01*
X04655D02*
X04744D01*
X04655Y02316D02*
Y02484D01*
Y02316D02*
X04744D01*
X05342Y02289D02*
X05457D01*
X05342D02*
Y02324D01*
X05457Y02289D02*
Y02324D01*
X05331D02*
X05342D01*
X05457D02*
X05469D01*
Y02399*
X05421D02*
X05469D01*
X05421D02*
Y02435D01*
X05379D02*
X05421D01*
X05379Y02399D02*
Y02435D01*
X05331Y02399D02*
X05379D01*
X05331Y02324D02*
Y02399D01*
X04734Y01864D02*
X04865D01*
X04734D02*
Y02136D01*
X04865*
Y01864D02*
Y02136D01*
X05144Y02316D02*
Y02484D01*
X05055D02*
X05144D01*
X05055Y02316D02*
Y02484D01*
Y02316D02*
X05144D01*
X06244D02*
Y02484D01*
X06155D02*
X06244D01*
X06155Y02316D02*
Y02484D01*
Y02316D02*
X06244D01*
X05844D02*
Y02484D01*
X05755D02*
X05844D01*
X05755Y02316D02*
Y02484D01*
Y02316D02*
X05844D01*
X06344Y01916D02*
Y02084D01*
X06255D02*
X06344D01*
X06255Y01916D02*
Y02084D01*
Y01916D02*
X06344D01*
X06044D02*
Y02084D01*
X05955D02*
X06044D01*
X05955Y01916D02*
Y02084D01*
Y01916D02*
X06044D01*
X05744D02*
Y02084D01*
X05655D02*
X05744D01*
X05655Y01916D02*
Y02084D01*
Y01916D02*
X05744D01*
X05434Y01364D02*
X05565D01*
X05434D02*
Y01636D01*
X05565*
Y01364D02*
Y01636D01*
X05144Y01416D02*
Y01584D01*
X05055D02*
X05144D01*
X05055Y01416D02*
Y01584D01*
Y01416D02*
X05144D01*
G54D23*
X0478Y015D02*
X04819D01*
X048Y0148D02*
Y01519D01*
X04837Y01421D02*
Y01578D01*
X04762Y01421D02*
Y01578D01*
X04837*
X04762Y01421D02*
X04837D01*
X0588Y015D02*
X05919D01*
X059Y0148D02*
Y01519D01*
X05937Y01421D02*
Y01578D01*
X05862Y01421D02*
Y01578D01*
X05937*
X05862Y01421D02*
X05937D01*
M02*