G04*
G04 #@! TF.GenerationSoftware,Altium Limited,Altium Designer,22.0.2 (36)*
G04*
G04 Layer_Physical_Order=1*
G04 Layer_Color=255*
%FSLAX25Y25*%
%MOIN*%
G70*
G04*
G04 #@! TF.SameCoordinates,814A3CDE-6894-4AC5-8A30-7A96F4401CB6*
G04*
G04*
G04 #@! TF.FilePolarity,Positive*
G04*
G01*
G75*
%ADD14C,0.01000*%
%ADD16C,0.00394*%
%ADD30R,0.05906X0.05906*%
%ADD31C,0.05906*%
%ADD32R,0.05906X0.05906*%
%ADD33O,0.07500X0.08000*%
%ADD34O,0.06000X0.08000*%
%ADD35O,0.08000X0.07500*%
%ADD36C,0.07500*%
%ADD37C,0.05906*%
%ADD38R,0.05906X0.05906*%
%ADD39C,0.05512*%
%ADD40C,0.07284*%
%ADD41R,0.07284X0.07284*%
%ADD42C,0.05000*%
D14*
X620000Y415000D02*
X624500Y419500D01*
Y469500D01*
X569000Y525000D02*
X624500Y469500D01*
X495000Y525000D02*
X569000D01*
X490000Y530000D02*
X495000Y525000D01*
X550000Y530000D02*
X570300D01*
X626500Y473800D01*
Y414700D02*
Y473800D01*
X622300Y410500D02*
X626500Y414700D01*
X618000Y410500D02*
X622300D01*
X615500Y413000D02*
X618000Y410500D01*
X615500Y413000D02*
Y420500D01*
X620000Y425000D01*
X370000Y240000D02*
Y255000D01*
X380000Y265000D01*
Y290000D01*
X280000Y130000D02*
X300200D01*
X345500Y175300D01*
Y385500D01*
X370000Y410000D01*
X280000Y140000D02*
X284300Y144300D01*
Y360900D01*
X324500Y401100D01*
Y459900D01*
X332600Y468000D01*
X342000D01*
X370000Y440000D01*
X322000Y162000D02*
Y365500D01*
X344500Y388000D01*
Y405500D01*
X340000Y410000D02*
X344500Y405500D01*
X360000Y240000D02*
Y260000D01*
X370000Y270000D01*
Y460000D02*
Y510000D01*
X380000Y520000D01*
X620000Y385000D02*
X655000D01*
X670000Y400000D01*
Y410000D01*
X537600Y357400D02*
X560000Y335000D01*
X532600Y357400D02*
X537600D01*
X500000Y390000D02*
X532600Y357400D01*
X549547Y375453D02*
X560000Y365000D01*
X549547Y375453D02*
Y432847D01*
X550000Y433300D01*
Y520000D01*
X560000Y315000D02*
X564500Y319500D01*
Y427100D01*
X562000Y429600D02*
X564500Y427100D01*
X555500Y429600D02*
X562000D01*
X553600Y431500D02*
X555500Y429600D01*
X340000Y440000D02*
X364500Y415500D01*
X372000D01*
X374500Y413000D01*
Y397500D02*
Y413000D01*
X372000Y395000D02*
X374500Y397500D01*
X358200Y395000D02*
X372000D01*
X355500Y392300D02*
X358200Y395000D01*
X355500Y216500D02*
Y392300D01*
Y216500D02*
X378000Y194000D01*
X390000Y270000D02*
Y356000D01*
X394000Y360000D01*
X430000D01*
X485500Y535500D02*
X490000Y540000D01*
X485500Y470500D02*
Y535500D01*
X480000Y465000D02*
X485500Y470500D01*
X380000Y540000D02*
X384500Y535500D01*
Y444500D02*
Y535500D01*
X370000Y430000D02*
X384500Y444500D01*
X335500Y455500D02*
X340000Y460000D01*
X335500Y394500D02*
Y455500D01*
Y394500D02*
X340000Y390000D01*
X390000Y240000D02*
Y270000D01*
X430000Y360000D02*
Y390000D01*
X340000Y420000D02*
Y430000D01*
X370000Y420000D02*
Y430000D01*
Y270000D02*
Y390000D01*
D16*
X566772Y472165D02*
G03*
X566772Y472165I-1969J0D01*
G01*
X561260Y264291D02*
Y475709D01*
X618740Y264291D02*
Y475709D01*
X561260D02*
X618740D01*
X561260Y264291D02*
X618740D01*
X588032Y370000D02*
X591969D01*
X590000Y368032D02*
Y371969D01*
D30*
X380000Y520000D02*
D03*
X430000D02*
D03*
X490000D02*
D03*
X550000D02*
D03*
X280000Y130000D02*
D03*
X670000D02*
D03*
X310000Y440000D02*
D03*
D31*
X380000Y530000D02*
D03*
Y540000D02*
D03*
X430000Y530000D02*
D03*
Y540000D02*
D03*
X490000Y530000D02*
D03*
Y540000D02*
D03*
X550000Y530000D02*
D03*
Y540000D02*
D03*
X560000Y455000D02*
D03*
Y445000D02*
D03*
Y435000D02*
D03*
Y425000D02*
D03*
Y415000D02*
D03*
Y405000D02*
D03*
Y395000D02*
D03*
Y385000D02*
D03*
Y375000D02*
D03*
Y365000D02*
D03*
Y355000D02*
D03*
Y345000D02*
D03*
Y335000D02*
D03*
Y325000D02*
D03*
Y315000D02*
D03*
Y305000D02*
D03*
Y295000D02*
D03*
Y285000D02*
D03*
Y275000D02*
D03*
X620000Y465000D02*
D03*
Y455000D02*
D03*
Y445000D02*
D03*
Y435000D02*
D03*
Y425000D02*
D03*
Y415000D02*
D03*
Y405000D02*
D03*
Y395000D02*
D03*
Y385000D02*
D03*
Y375000D02*
D03*
Y365000D02*
D03*
Y355000D02*
D03*
Y345000D02*
D03*
Y335000D02*
D03*
Y325000D02*
D03*
Y315000D02*
D03*
Y305000D02*
D03*
Y295000D02*
D03*
Y285000D02*
D03*
Y275000D02*
D03*
X280000Y140000D02*
D03*
X670000D02*
D03*
X310000Y450000D02*
D03*
D32*
X560000Y465000D02*
D03*
D33*
X670000Y410000D02*
D03*
Y390315D02*
D03*
D34*
X400000Y240000D02*
D03*
X410000D02*
D03*
X420000D02*
D03*
X390000D02*
D03*
X360000D02*
D03*
X370000D02*
D03*
X380000D02*
D03*
X430000D02*
D03*
X480000D02*
D03*
X490000D02*
D03*
X500000D02*
D03*
X470000D02*
D03*
X440000D02*
D03*
X450000D02*
D03*
X460000D02*
D03*
X350000D02*
D03*
D35*
X430000Y390000D02*
D03*
X449685D02*
D03*
X430000Y360000D02*
D03*
X449685D02*
D03*
D36*
X500000Y370000D02*
D03*
Y390000D02*
D03*
X390000Y270000D02*
D03*
X380000Y290000D02*
D03*
X370000Y270000D02*
D03*
D37*
X340000Y460000D02*
D03*
Y450000D02*
D03*
Y440000D02*
D03*
Y430000D02*
D03*
Y420000D02*
D03*
Y410000D02*
D03*
Y400000D02*
D03*
Y390000D02*
D03*
X370000Y460000D02*
D03*
Y450000D02*
D03*
Y440000D02*
D03*
Y430000D02*
D03*
Y420000D02*
D03*
Y410000D02*
D03*
Y400000D02*
D03*
D38*
Y390000D02*
D03*
D39*
X400000Y450000D02*
D03*
X440000D02*
D03*
D40*
X480000Y455000D02*
D03*
X500000D02*
D03*
Y465000D02*
D03*
D41*
X480000D02*
D03*
D42*
X322000Y162000D02*
D03*
X553600Y431500D02*
D03*
X378000Y194000D02*
D03*
M02*
