G04*
G04 #@! TF.GenerationSoftware,Altium Limited,Altium Designer,22.0.2 (36)*
G04*
G04 Layer_Physical_Order=2*
G04 Layer_Color=16711680*
%FSLAX25Y25*%
%MOIN*%
G70*
G04*
G04 #@! TF.SameCoordinates,814A3CDE-6894-4AC5-8A30-7A96F4401CB6*
G04*
G04*
G04 #@! TF.FilePolarity,Positive*
G04*
G01*
G75*
%ADD14C,0.01000*%
%ADD16C,0.00394*%
%ADD30R,0.05906X0.05906*%
%ADD31C,0.05906*%
%ADD32R,0.05906X0.05906*%
%ADD33O,0.07500X0.08000*%
%ADD34O,0.06000X0.08000*%
%ADD35O,0.08000X0.07500*%
%ADD36C,0.07500*%
%ADD37C,0.05906*%
%ADD38R,0.05906X0.05906*%
%ADD39C,0.05512*%
%ADD40C,0.07284*%
%ADD41R,0.07284X0.07284*%
%ADD42C,0.05000*%
D14*
X430000Y396000D02*
Y416000D01*
X335500Y445500D02*
X340000Y450000D01*
X335500Y427500D02*
Y445500D01*
Y427500D02*
X338000Y425000D01*
X348200D01*
X358200Y415000D01*
X382700D01*
X492700Y305000D01*
X560000D01*
X591100Y423900D02*
X620000Y395000D01*
X591100Y423900D02*
Y465300D01*
X577000Y479400D02*
X591100Y465300D01*
X407500Y479400D02*
X577000D01*
X375500Y511400D02*
X407500Y479400D01*
X375500Y511400D02*
Y525500D01*
X380000Y530000D01*
X455685Y370000D02*
X500000D01*
X449685Y364000D02*
X455685Y370000D01*
X449685Y360000D02*
Y364000D01*
X354000Y130000D02*
X670000D01*
X322000Y162000D02*
X354000Y130000D01*
X380000Y240000D02*
Y244500D01*
X381000Y245500D01*
X412000D01*
X415000Y242500D01*
Y237300D02*
Y242500D01*
Y237300D02*
X420000Y232300D01*
X460000D01*
X465000Y237300D01*
Y248000D01*
X470200Y253200D01*
X578200D01*
X620000Y295000D01*
X440000Y450000D02*
X475000D01*
X480000Y455000D01*
X560000Y365000D02*
X580000Y385000D01*
X620000D01*
X380000Y450000D02*
X400000D01*
X370000Y460000D02*
X380000Y450000D01*
X620000Y285000D02*
X624500Y280500D01*
Y263900D02*
Y280500D01*
X594000Y233400D02*
X624500Y263900D01*
X482000Y233400D02*
X594000D01*
X480000Y235400D02*
X482000Y233400D01*
X480000Y235400D02*
Y240000D01*
X620000Y305000D02*
X626500Y298500D01*
Y252100D02*
Y298500D01*
X603600Y229200D02*
X626500Y252100D01*
X404000Y229200D02*
X603600D01*
X400000Y233200D02*
X404000Y229200D01*
X400000Y233200D02*
Y240000D01*
X615500Y409500D02*
X620000Y405000D01*
X615500Y409500D02*
Y478000D01*
X568000Y525500D02*
X615500Y478000D01*
X434500Y525500D02*
X568000D01*
X430000Y530000D02*
X434500Y525500D01*
X388500Y431500D02*
X553600D01*
X370000Y450000D02*
X388500Y431500D01*
X560000Y325000D02*
X564500Y320500D01*
Y303000D02*
Y320500D01*
X562000Y300500D02*
X564500Y303000D01*
X469500Y300500D02*
X562000D01*
X370000Y400000D02*
X469500Y300500D01*
X315600Y420000D02*
X340000D01*
X305500Y430100D02*
X315600Y420000D01*
X305500Y430100D02*
Y445500D01*
X310000Y450000D01*
X595100Y250100D02*
X620000Y275000D01*
X476000Y250100D02*
X595100D01*
X470000Y244100D02*
X476000Y250100D01*
X470000Y240000D02*
Y244100D01*
X378000Y194000D02*
X616000D01*
X670000Y140000D01*
X426000Y295000D02*
X560000D01*
X335500Y385500D02*
X426000Y295000D01*
X335500Y385500D02*
Y395500D01*
X340000Y400000D01*
X426000Y420000D02*
X430000Y416000D01*
X370000Y420000D02*
X426000D01*
X540085Y390315D02*
X670000D01*
X530400Y400000D02*
X540085Y390315D01*
X434000Y400000D02*
X530400D01*
X430000Y396000D02*
X434000Y400000D01*
X430000Y390000D02*
Y396000D01*
X310000Y440000D02*
X320000D01*
X340000Y460000D01*
X525000Y345000D02*
X560000D01*
X500000Y370000D02*
X525000Y345000D01*
X455000Y285000D02*
X560000D01*
X450000Y280000D02*
X455000Y285000D01*
X450000Y240000D02*
Y280000D01*
X464000Y275000D02*
X560000D01*
X460000Y271000D02*
X464000Y275000D01*
X460000Y240000D02*
Y271000D01*
X580000Y375000D02*
X620000D01*
X560000Y355000D02*
X580000Y375000D01*
X480000Y455000D02*
X496800Y471800D01*
X553200D01*
X560000Y465000D01*
X350000Y235500D02*
Y240000D01*
Y235500D02*
X351000Y234500D01*
X389000D01*
X390000Y235500D01*
Y240000D01*
X490000Y540000D02*
X550000D01*
X430000D02*
X490000D01*
X380000D02*
X430000D01*
X340000Y430000D02*
X370000D01*
X449685Y390000D02*
X500000D01*
X490000Y520000D02*
X550000D01*
X430000D02*
X490000D01*
X380000D02*
X430000D01*
X340000Y390000D02*
X370000D01*
X340000Y460000D02*
X370000D01*
D16*
X566772Y472165D02*
G03*
X566772Y472165I-1969J0D01*
G01*
X561260Y264291D02*
Y475709D01*
X618740Y264291D02*
Y475709D01*
X561260D02*
X618740D01*
X561260Y264291D02*
X618740D01*
X588032Y370000D02*
X591969D01*
X590000Y368032D02*
Y371969D01*
D30*
X380000Y520000D02*
D03*
X430000D02*
D03*
X490000D02*
D03*
X550000D02*
D03*
X280000Y130000D02*
D03*
X670000D02*
D03*
X310000Y440000D02*
D03*
D31*
X380000Y530000D02*
D03*
Y540000D02*
D03*
X430000Y530000D02*
D03*
Y540000D02*
D03*
X490000Y530000D02*
D03*
Y540000D02*
D03*
X550000Y530000D02*
D03*
Y540000D02*
D03*
X560000Y455000D02*
D03*
Y445000D02*
D03*
Y435000D02*
D03*
Y425000D02*
D03*
Y415000D02*
D03*
Y405000D02*
D03*
Y395000D02*
D03*
Y385000D02*
D03*
Y375000D02*
D03*
Y365000D02*
D03*
Y355000D02*
D03*
Y345000D02*
D03*
Y335000D02*
D03*
Y325000D02*
D03*
Y315000D02*
D03*
Y305000D02*
D03*
Y295000D02*
D03*
Y285000D02*
D03*
Y275000D02*
D03*
X620000Y465000D02*
D03*
Y455000D02*
D03*
Y445000D02*
D03*
Y435000D02*
D03*
Y425000D02*
D03*
Y415000D02*
D03*
Y405000D02*
D03*
Y395000D02*
D03*
Y385000D02*
D03*
Y375000D02*
D03*
Y365000D02*
D03*
Y355000D02*
D03*
Y345000D02*
D03*
Y335000D02*
D03*
Y325000D02*
D03*
Y315000D02*
D03*
Y305000D02*
D03*
Y295000D02*
D03*
Y285000D02*
D03*
Y275000D02*
D03*
X280000Y140000D02*
D03*
X670000D02*
D03*
X310000Y450000D02*
D03*
D32*
X560000Y465000D02*
D03*
D33*
X670000Y410000D02*
D03*
Y390315D02*
D03*
D34*
X400000Y240000D02*
D03*
X410000D02*
D03*
X420000D02*
D03*
X390000D02*
D03*
X360000D02*
D03*
X370000D02*
D03*
X380000D02*
D03*
X430000D02*
D03*
X480000D02*
D03*
X490000D02*
D03*
X500000D02*
D03*
X470000D02*
D03*
X440000D02*
D03*
X450000D02*
D03*
X460000D02*
D03*
X350000D02*
D03*
D35*
X430000Y390000D02*
D03*
X449685D02*
D03*
X430000Y360000D02*
D03*
X449685D02*
D03*
D36*
X500000Y370000D02*
D03*
Y390000D02*
D03*
X390000Y270000D02*
D03*
X380000Y290000D02*
D03*
X370000Y270000D02*
D03*
D37*
X340000Y460000D02*
D03*
Y450000D02*
D03*
Y440000D02*
D03*
Y430000D02*
D03*
Y420000D02*
D03*
Y410000D02*
D03*
Y400000D02*
D03*
Y390000D02*
D03*
X370000Y460000D02*
D03*
Y450000D02*
D03*
Y440000D02*
D03*
Y430000D02*
D03*
Y420000D02*
D03*
Y410000D02*
D03*
Y400000D02*
D03*
D38*
Y390000D02*
D03*
D39*
X400000Y450000D02*
D03*
X440000D02*
D03*
D40*
X480000Y455000D02*
D03*
X500000D02*
D03*
Y465000D02*
D03*
D41*
X480000D02*
D03*
D42*
X322000Y162000D02*
D03*
X553600Y431500D02*
D03*
X378000Y194000D02*
D03*
M02*
