G04*
G04 #@! TF.GenerationSoftware,Altium Limited,Altium Designer,22.0.2 (36)*
G04*
G04 Layer_Color=2752767*
%FSLAX25Y25*%
%MOIN*%
G70*
G04*
G04 #@! TF.SameCoordinates,814A3CDE-6894-4AC5-8A30-7A96F4401CB6*
G04*
G04*
G04 #@! TF.FilePolarity,Positive*
G04*
G01*
G75*
%ADD16C,0.00394*%
%ADD43C,0.00200*%
%ADD44C,0.00267*%
D16*
X566772Y472165D02*
G03*
X566772Y472165I-1969J0D01*
G01*
X561260Y264291D02*
Y475709D01*
X618740Y264291D02*
Y475709D01*
X561260D02*
X618740D01*
X561260Y264291D02*
X618740D01*
X588032Y370000D02*
X591969D01*
X590000Y368032D02*
Y371969D01*
D43*
X379200Y519200D02*
Y520800D01*
X380800D01*
Y519200D01*
X379200D01*
Y529200D02*
Y530800D01*
X380800D01*
Y529200D01*
X379200D01*
Y539200D02*
Y540800D01*
X380800D01*
Y539200D01*
X379200D01*
X429200Y519200D02*
Y520800D01*
X430800D01*
Y519200D01*
X429200D01*
Y529200D02*
Y530800D01*
X430800D01*
Y529200D01*
X429200D01*
Y539200D02*
Y540800D01*
X430800D01*
Y539200D01*
X429200D01*
X489200Y519200D02*
Y520800D01*
X490800D01*
Y519200D01*
X489200D01*
Y529200D02*
Y530800D01*
X490800D01*
Y529200D01*
X489200D01*
Y539200D02*
Y540800D01*
X490800D01*
Y539200D01*
X489200D01*
X549200Y519200D02*
Y520800D01*
X550800D01*
Y519200D01*
X549200D01*
Y529200D02*
Y530800D01*
X550800D01*
Y529200D01*
X549200D01*
Y539200D02*
Y540800D01*
X550800D01*
Y539200D01*
X549200D01*
X559200Y464200D02*
Y465800D01*
X560800D01*
Y464200D01*
X559200D01*
Y454200D02*
Y455800D01*
X560800D01*
Y454200D01*
X559200D01*
Y444200D02*
Y445800D01*
X560800D01*
Y444200D01*
X559200D01*
Y434200D02*
Y435800D01*
X560800D01*
Y434200D01*
X559200D01*
Y424200D02*
Y425800D01*
X560800D01*
Y424200D01*
X559200D01*
Y414200D02*
Y415800D01*
X560800D01*
Y414200D01*
X559200D01*
Y404200D02*
Y405800D01*
X560800D01*
Y404200D01*
X559200D01*
Y394200D02*
Y395800D01*
X560800D01*
Y394200D01*
X559200D01*
Y384200D02*
Y385800D01*
X560800D01*
Y384200D01*
X559200D01*
Y374200D02*
Y375800D01*
X560800D01*
Y374200D01*
X559200D01*
Y364200D02*
Y365800D01*
X560800D01*
Y364200D01*
X559200D01*
Y354200D02*
Y355800D01*
X560800D01*
Y354200D01*
X559200D01*
Y344200D02*
Y345800D01*
X560800D01*
Y344200D01*
X559200D01*
Y334200D02*
Y335800D01*
X560800D01*
Y334200D01*
X559200D01*
Y324200D02*
Y325800D01*
X560800D01*
Y324200D01*
X559200D01*
Y314200D02*
Y315800D01*
X560800D01*
Y314200D01*
X559200D01*
Y304200D02*
Y305800D01*
X560800D01*
Y304200D01*
X559200D01*
Y294200D02*
Y295800D01*
X560800D01*
Y294200D01*
X559200D01*
Y284200D02*
Y285800D01*
X560800D01*
Y284200D01*
X559200D01*
Y274200D02*
Y275800D01*
X560800D01*
Y274200D01*
X559200D01*
X619200Y464200D02*
Y465800D01*
X620800D01*
Y464200D01*
X619200D01*
Y454200D02*
Y455800D01*
X620800D01*
Y454200D01*
X619200D01*
Y444200D02*
Y445800D01*
X620800D01*
Y444200D01*
X619200D01*
Y434200D02*
Y435800D01*
X620800D01*
Y434200D01*
X619200D01*
Y424200D02*
Y425800D01*
X620800D01*
Y424200D01*
X619200D01*
Y414200D02*
Y415800D01*
X620800D01*
Y414200D01*
X619200D01*
Y404200D02*
Y405800D01*
X620800D01*
Y404200D01*
X619200D01*
Y394200D02*
Y395800D01*
X620800D01*
Y394200D01*
X619200D01*
Y384200D02*
Y385800D01*
X620800D01*
Y384200D01*
X619200D01*
Y374200D02*
Y375800D01*
X620800D01*
Y374200D01*
X619200D01*
Y364200D02*
Y365800D01*
X620800D01*
Y364200D01*
X619200D01*
Y354200D02*
Y355800D01*
X620800D01*
Y354200D01*
X619200D01*
Y344200D02*
Y345800D01*
X620800D01*
Y344200D01*
X619200D01*
Y334200D02*
Y335800D01*
X620800D01*
Y334200D01*
X619200D01*
Y324200D02*
Y325800D01*
X620800D01*
Y324200D01*
X619200D01*
Y314200D02*
Y315800D01*
X620800D01*
Y314200D01*
X619200D01*
Y304200D02*
Y305800D01*
X620800D01*
Y304200D01*
X619200D01*
Y294200D02*
Y295800D01*
X620800D01*
Y294200D01*
X619200D01*
Y284200D02*
Y285800D01*
X620800D01*
Y284200D01*
X619200D01*
Y274200D02*
Y275800D01*
X620800D01*
Y274200D01*
X619200D01*
X279200Y129200D02*
Y130800D01*
X280800D01*
Y129200D01*
X279200D01*
Y139200D02*
Y140800D01*
X280800D01*
Y139200D01*
X279200D01*
X399200Y239200D02*
Y240800D01*
X400800D01*
Y239200D01*
X399200D01*
X409200D02*
Y240800D01*
X410800D01*
Y239200D01*
X409200D01*
X419200D02*
Y240800D01*
X420800D01*
Y239200D01*
X419200D01*
X389200D02*
Y240800D01*
X390800D01*
Y239200D01*
X389200D01*
X359200D02*
Y240800D01*
X360800D01*
Y239200D01*
X359200D01*
X369200D02*
Y240800D01*
X370800D01*
Y239200D01*
X369200D01*
X379200D02*
Y240800D01*
X380800D01*
Y239200D01*
X379200D01*
X429200D02*
Y240800D01*
X430800D01*
Y239200D01*
X429200D01*
X479200D02*
Y240800D01*
X480800D01*
Y239200D01*
X479200D01*
X489200D02*
Y240800D01*
X490800D01*
Y239200D01*
X489200D01*
X499200D02*
Y240800D01*
X500800D01*
Y239200D01*
X499200D01*
X469200D02*
Y240800D01*
X470800D01*
Y239200D01*
X469200D01*
X439200D02*
Y240800D01*
X440800D01*
Y239200D01*
X439200D01*
X449200D02*
Y240800D01*
X450800D01*
Y239200D01*
X449200D01*
X459200D02*
Y240800D01*
X460800D01*
Y239200D01*
X459200D01*
X349200D02*
Y240800D01*
X350800D01*
Y239200D01*
X349200D01*
X669200Y129200D02*
Y130800D01*
X670800D01*
Y129200D01*
X669200D01*
Y139200D02*
Y140800D01*
X670800D01*
Y139200D01*
X669200D01*
X500000Y369200D02*
X499200Y370800D01*
X500800D01*
X500000Y369200D01*
Y389200D02*
X499200Y390800D01*
X500800D01*
X500000Y389200D01*
X390000Y269200D02*
X390400Y269600D01*
X390800D01*
X390400Y270000D01*
X390800Y270400D01*
X390400D01*
X390000Y270800D01*
X389600Y270400D01*
X389200D01*
X389600Y270000D01*
X389200Y269600D01*
X389600D01*
X390000Y269200D01*
X380000Y289200D02*
X380400Y289600D01*
X380800D01*
X380400Y290000D01*
X380800Y290400D01*
X380400D01*
X380000Y290800D01*
X379600Y290400D01*
X379200D01*
X379600Y290000D01*
X379200Y289600D01*
X379600D01*
X380000Y289200D01*
X370000Y269200D02*
X370400Y269600D01*
X370800D01*
X370400Y270000D01*
X370800Y270400D01*
X370400D01*
X370000Y270800D01*
X369600Y270400D01*
X369200D01*
X369600Y270000D01*
X369200Y269600D01*
X369600D01*
X370000Y269200D01*
X339200Y459200D02*
Y460800D01*
X340800D01*
Y459200D01*
X339200D01*
Y449200D02*
Y450800D01*
X340800D01*
Y449200D01*
X339200D01*
Y439200D02*
Y440800D01*
X340800D01*
Y439200D01*
X339200D01*
Y429200D02*
Y430800D01*
X340800D01*
Y429200D01*
X339200D01*
Y419200D02*
Y420800D01*
X340800D01*
Y419200D01*
X339200D01*
Y409200D02*
Y410800D01*
X340800D01*
Y409200D01*
X339200D01*
Y399200D02*
Y400800D01*
X340800D01*
Y399200D01*
X339200D01*
Y389200D02*
Y390800D01*
X340800D01*
Y389200D01*
X339200D01*
X369200Y459200D02*
Y460800D01*
X370800D01*
Y459200D01*
X369200D01*
Y449200D02*
Y450800D01*
X370800D01*
Y449200D01*
X369200D01*
Y439200D02*
Y440800D01*
X370800D01*
Y439200D01*
X369200D01*
Y429200D02*
Y430800D01*
X370800D01*
Y429200D01*
X369200D01*
Y419200D02*
Y420800D01*
X370800D01*
Y419200D01*
X369200D01*
Y409200D02*
Y410800D01*
X370800D01*
Y409200D01*
X369200D01*
Y399200D02*
Y400800D01*
X370800D01*
Y399200D01*
X369200D01*
Y389200D02*
Y390800D01*
X370800D01*
Y389200D01*
X369200D01*
X399200Y449200D02*
X399600Y450000D01*
X399200Y450800D01*
X400000Y450400D01*
X400800Y450800D01*
X400400Y450000D01*
X400800Y449200D01*
X400000Y449600D01*
X399200Y449200D01*
X439200D02*
X439600Y450000D01*
X439200Y450800D01*
X440000Y450400D01*
X440800Y450800D01*
X440400Y450000D01*
X440800Y449200D01*
X440000Y449600D01*
X439200Y449200D01*
X309200Y439200D02*
Y440800D01*
X310800D01*
Y439200D01*
X309200D01*
Y449200D02*
Y450800D01*
X310800D01*
Y449200D01*
X309200D01*
X479600Y454600D02*
Y454200D01*
X480400D01*
Y454600D01*
X480800D01*
Y455400D01*
X480400D01*
Y455800D01*
X479600D01*
Y455400D01*
X479200D01*
Y454600D01*
X479600D01*
X499600D02*
Y454200D01*
X500400D01*
Y454600D01*
X500800D01*
Y455400D01*
X500400D01*
Y455800D01*
X499600D01*
Y455400D01*
X499200D01*
Y454600D01*
X499600D01*
Y464600D02*
Y464200D01*
X500400D01*
Y464600D01*
X500800D01*
Y465400D01*
X500400D01*
Y465800D01*
X499600D01*
Y465400D01*
X499200D01*
Y464600D01*
X499600D01*
X479600D02*
Y464200D01*
X480400D01*
Y464600D01*
X480800D01*
Y465400D01*
X480400D01*
Y465800D01*
X479600D01*
Y465400D01*
X479200D01*
Y464600D01*
X479600D01*
X321200Y161200D02*
X321600D01*
X322000Y161600D01*
X322400Y161200D01*
X322800D01*
Y161600D01*
X322400Y162000D01*
X322800Y162400D01*
Y162800D01*
X322400D01*
X322000Y162400D01*
X321600Y162800D01*
X321200D01*
Y162400D01*
X321600Y162000D01*
X321200Y161600D01*
Y161200D01*
X552800Y430700D02*
X553200D01*
X553600Y431100D01*
X554000Y430700D01*
X554400D01*
Y431100D01*
X554000Y431500D01*
X554400Y431900D01*
Y432300D01*
X554000D01*
X553600Y431900D01*
X553200Y432300D01*
X552800D01*
Y431900D01*
X553200Y431500D01*
X552800Y431100D01*
Y430700D01*
X377200Y193200D02*
X377600D01*
X378000Y193600D01*
X378400Y193200D01*
X378800D01*
Y193600D01*
X378400Y194000D01*
X378800Y194400D01*
Y194800D01*
X378400D01*
X378000Y194400D01*
X377600Y194800D01*
X377200D01*
Y194400D01*
X377600Y194000D01*
X377200Y193600D01*
Y193200D01*
D44*
X670800Y410000D02*
G03*
X670800Y410000I-800J0D01*
G01*
Y390315D02*
G03*
X670800Y390315I-800J0D01*
G01*
X430800Y390000D02*
G03*
X430800Y390000I-800J0D01*
G01*
X450485D02*
G03*
X450485Y390000I-800J0D01*
G01*
X430800Y360000D02*
G03*
X430800Y360000I-800J0D01*
G01*
X450485D02*
G03*
X450485Y360000I-800J0D01*
G01*
M02*
