%FSTAX23Y23*%
%MOIN*%
%SFA1B1*%

%IPPOS*%
%ADD16C,0.003940*%
%ADD30R,0.059060X0.059060*%
%ADD31C,0.059060*%
%ADD32R,0.059060X0.059060*%
%ADD33O,0.075000X0.080000*%
%ADD34O,0.060000X0.080000*%
%ADD35O,0.080000X0.075000*%
%ADD36C,0.075000*%
%ADD37C,0.059060*%
%ADD38R,0.059060X0.059060*%
%ADD39C,0.055120*%
%ADD40C,0.072840*%
%ADD41R,0.072840X0.072840*%
G54D16*
X05667Y04721D02*
D01*
D01*
G75*
G03X05628I-00019J0D01*
G74*G01*
D01*
G75*
G03X05667I00019J0D01*
G74*G01*
X05612Y02642D02*
Y04757D01*
X06187Y02642D02*
Y04757D01*
X05612D02*
X06187D01*
X05612Y02642D02*
X06187D01*
X0588Y037D02*
X05919D01*
X059Y0368D02*
Y03719D01*
G54D30*
X038Y052D03*
X043D03*
X049D03*
X055D03*
X028Y013D03*
X067D03*
X031Y044D03*
G54D31*
X038Y053D03*
Y054D03*
X043Y053D03*
Y054D03*
X049Y053D03*
Y054D03*
X055Y053D03*
Y054D03*
X056Y0455D03*
Y0445D03*
Y0435D03*
Y0425D03*
Y0415D03*
Y0405D03*
Y0395D03*
Y0385D03*
Y0375D03*
Y0365D03*
Y0355D03*
Y0345D03*
Y0335D03*
Y0325D03*
Y0315D03*
Y0305D03*
Y0295D03*
Y0285D03*
Y0275D03*
X062Y0465D03*
Y0455D03*
Y0445D03*
Y0435D03*
Y0425D03*
Y0415D03*
Y0405D03*
Y0395D03*
Y0385D03*
Y0375D03*
Y0365D03*
Y0355D03*
Y0345D03*
Y0335D03*
Y0325D03*
Y0315D03*
Y0305D03*
Y0295D03*
Y0285D03*
Y0275D03*
X028Y014D03*
X067D03*
X031Y045D03*
G54D32*
X056Y0465D03*
G54D33*
X067Y041D03*
Y03903D03*
G54D34*
X04Y024D03*
X041D03*
X042D03*
X039D03*
X036D03*
X037D03*
X038D03*
X043D03*
X048D03*
X049D03*
X05D03*
X047D03*
X044D03*
X045D03*
X046D03*
X035D03*
G54D35*
X043Y039D03*
X04496D03*
X043Y036D03*
X04496D03*
G54D36*
X05Y037D03*
Y039D03*
X039Y027D03*
X038Y029D03*
X037Y027D03*
G54D37*
X034Y046D03*
Y045D03*
Y044D03*
Y043D03*
Y042D03*
Y041D03*
Y04D03*
Y039D03*
X037Y046D03*
Y045D03*
Y044D03*
Y043D03*
Y042D03*
Y041D03*
Y04D03*
G54D38*
X037Y039D03*
G54D39*
X04Y045D03*
X044D03*
G54D40*
X048Y0455D03*
X05D03*
Y0465D03*
G54D41*
X048Y0465D03*
M02*