%FSTAX23Y23*%
%MOIN*%
%SFA1B1*%

%IPPOS*%
%ADD10C,0.007870*%
%ADD11C,0.009840*%
%ADD12C,0.023620*%
%ADD13C,0.007000*%
%ADD14C,0.010000*%
%ADD15C,0.030000*%
%ADD16C,0.003940*%
%ADD45C,0.005000*%
G54D10*
X05875Y04757D02*
D01*
D01*
G75*
G03X05925I00025J0D01*
G74*G01*
X03575Y03844D02*
D01*
D01*
G75*
G03X03525I-00025J0D01*
G74*G01*
X0385Y0515D02*
Y0545D01*
X0375D02*
X0385D01*
X0375Y0515D02*
Y0545D01*
Y0515D02*
X0385D01*
X0435D02*
Y0545D01*
X0425D02*
X0435D01*
X0425Y0515D02*
Y0545D01*
Y0515D02*
X0435D01*
X0495D02*
Y0545D01*
X0485D02*
X0495D01*
X0485Y0515D02*
Y0545D01*
Y0515D02*
X0495D01*
X0555D02*
Y0545D01*
X0545D02*
X0555D01*
X0545Y0515D02*
Y0545D01*
Y0515D02*
X0555D01*
X05646Y02642D02*
Y04757D01*
X06153Y02642D02*
Y04757D01*
X05646D02*
X05875D01*
X05925D02*
X06153D01*
X05646Y02642D02*
X06153D01*
X0275Y0145D02*
X0285D01*
Y0125D02*
Y0145D01*
X0275Y0125D02*
X0285D01*
X0275D02*
Y0145D01*
X0665D02*
X0675D01*
Y0125D02*
Y0145D01*
X0665Y0125D02*
X0675D01*
X0665D02*
Y0145D01*
X03445Y03844D02*
Y04655D01*
X03654Y03844D02*
Y04655D01*
X03445D02*
X03654D01*
X03445Y03844D02*
X03525D01*
X03575D02*
X03654D01*
X0404Y045D02*
X0408D01*
X0432D02*
X0436D01*
X0408Y0454D02*
X0432D01*
X0408Y0446D02*
Y0454D01*
Y0446D02*
X0432D01*
Y0454*
X0305Y0455D02*
X0315D01*
Y0435D02*
Y0455D01*
X0305Y0435D02*
X0315D01*
X0305D02*
Y0455D01*
X04731Y045D02*
Y047D01*
Y045D02*
X05068D01*
Y047*
X04731D02*
X05068D01*
G54D11*
X05604Y04701D02*
D01*
D01*
G75*
G03X05595I-00004J0D01*
G74*G01*
D01*
G75*
G03X05604I00004J0D01*
G74*G01*
X04717Y0465D02*
D01*
D01*
G75*
G03X04708I-00004J0D01*
G74*G01*
D01*
G75*
G03X04717I00004J0D01*
G74*G01*
G54D12*
X05697Y04717D02*
D01*
D01*
G75*
G03X05673I-00011J0D01*
G74*G01*
D01*
G75*
G03X05697I00011J0D01*
G74*G01*
G54D13*
X06752Y041D02*
D01*
D01*
G75*
G03X06648Y04098I-00052J-0D01*
G74*G01*
X06649Y03902D02*
D01*
D01*
G75*
G03X06753I00052J0D01*
G74*G01*
X043Y03952D02*
D01*
D01*
G75*
G03X04301Y03848I0J-00052D01*
G74*G01*
X04497Y03849D02*
D01*
D01*
G75*
G03Y03953I0J00052D01*
G74*G01*
X04925Y03691D02*
D01*
D01*
G75*
G03X05075Y03691I00074J0D01*
G74*G01*
Y03904D02*
D01*
D01*
G75*
G03X04925Y03904I-00074J-0D01*
G74*G01*
X04909Y03695D02*
D01*
D01*
G75*
G03X05089Y03694I00089J-00003D01*
G74*G01*
X0509Y03905D02*
D01*
D01*
G75*
G03X0491Y03905I-00089J-0D01*
G74*G01*
X043Y03652D02*
D01*
D01*
G75*
G03X04301Y03549I-0J-00051D01*
G74*G01*
X04497D02*
D01*
D01*
G75*
G03Y03653I0J00052D01*
G74*G01*
X03758Y0291D02*
D01*
D01*
G75*
G03X03695Y02745I00041J-00110D01*
G74*G01*
X03904Y02746D02*
D01*
D01*
G75*
G03X03841Y02911I-00104J00054D01*
G74*G01*
X067Y04021D02*
Y04047D01*
Y03957D02*
Y03983D01*
X06673Y04021D02*
X06728D01*
X06674Y03983D02*
X06729D01*
X06753Y03904D02*
Y041D01*
X06649Y03903D02*
Y04098D01*
X04352Y039D02*
X04378D01*
X04416D02*
X04442D01*
X04378Y03873D02*
Y03928D01*
X04416Y03874D02*
Y03929D01*
X043Y03953D02*
X04495D01*
X04301Y03849D02*
X04496D01*
X05075Y03693D02*
Y03903D01*
X04925Y03694D02*
Y03904D01*
X0509Y03694D02*
Y03905D01*
X04909Y03695D02*
Y03905D01*
X04962Y0382D02*
X05037D01*
X05001D02*
Y0385D01*
X04962Y03779D02*
X05036D01*
X05001Y03748D02*
Y03779D01*
X04352Y036D02*
X04378D01*
X04416D02*
X04442D01*
X04378Y03573D02*
Y03628D01*
X04416Y03574D02*
Y03629D01*
X043Y03653D02*
X04495D01*
X04301Y03549D02*
X04496D01*
X03709Y02813D02*
X03786D01*
Y02839*
X03813*
Y02814D02*
Y02839D01*
Y02814D02*
X03892D01*
Y02785D02*
Y02814D01*
X03812Y02785D02*
X03892D01*
X03812Y02756D02*
Y02785D01*
X03785Y02756D02*
X03812D01*
X03785D02*
Y02786D01*
X03708D02*
X03785D01*
X03708D02*
Y02813D01*
X03732Y02729D02*
X03867D01*
X03841Y02946D02*
X039Y02937D01*
X0393Y02907*
Y02732D02*
Y02907D01*
X03731Y0267D02*
X03868D01*
X03669Y02731D02*
Y02906D01*
X037Y02937*
X03754Y02946*
X03841*
X0388Y02656D02*
X03931D01*
X03671D02*
X03722D01*
G54D14*
X025Y01D02*
Y057D01*
X07*
Y01D02*
Y057D01*
X025Y01D02*
X07D01*
X04525Y01858D02*
Y01798D01*
X04565*
X04625Y01848D02*
X04615Y01858D01*
X04595*
X04585Y01848*
Y01808*
X04595Y01798*
X04615*
X04625Y01808*
X04645Y01858D02*
Y01798D01*
X04674*
X04684Y01808*
Y01848*
X04674Y01858*
X04645*
X04704Y01798D02*
X04724D01*
X04714*
Y01858*
X04704Y01848*
X04794Y01858D02*
X04774Y01848D01*
X04754Y01828*
Y01808*
X04764Y01798*
X04784*
X04794Y01808*
Y01818*
X04784Y01828*
X04754*
X04814Y01848D02*
X04824Y01858D01*
X04844*
X04854Y01848*
Y01808*
X04844Y01798*
X04824*
X04814Y01808*
Y01848*
X04914Y01798D02*
X04874D01*
X04914Y01838*
Y01848*
X04904Y01858*
X04884*
X04874Y01848*
X04916Y04102D02*
X04955Y04043D01*
Y04102D02*
X04916Y04043D01*
X04975D02*
X04995D01*
X04985*
Y04102*
X04975Y04092*
X03623Y03161D02*
Y03121D01*
X03642Y03102*
X03662Y03121*
Y03161*
X03682Y03102D02*
Y03161D01*
X03712*
X03722Y03151*
Y03131*
X03712Y03121*
X03682*
X03702D02*
X03722Y03102D01*
X03742D02*
X03762D01*
X03752*
Y03161*
X03742Y03151*
X03376Y04748D02*
Y04699D01*
X03386Y04689*
X03405*
X03415Y04699*
Y04748*
X03475Y04689D02*
X03435D01*
X03475Y04728*
Y04738*
X03465Y04748*
X03445*
X03435Y04738*
X05576Y0485D02*
Y04801D01*
X05586Y04791*
X05605*
X05615Y04801*
Y0485*
X05635Y04791D02*
X05655D01*
X05645*
Y0485*
X05635Y0484*
X04752Y0485D02*
X04742Y0486D01*
X04723*
X04713Y0485*
Y0484*
X04723Y0483*
X04742*
X04752Y0482*
Y04811*
X04742Y04801*
X04723*
X04713Y04811*
X04772Y04801D02*
X04792D01*
X04782*
Y0486*
X04772Y0485*
X03978Y04574D02*
Y04633D01*
X04007*
X04017Y04623*
Y04603*
X04007Y04593*
X03978*
X03997D02*
X04017Y04574D01*
X04037D02*
X04057D01*
X04047*
Y04633*
X04037Y04623*
X05453Y05484D02*
Y05543D01*
X05482*
X05492Y05533*
Y05513*
X05482Y05503*
X05453*
X05512Y05543D02*
X05552D01*
Y05533*
X05512Y05494*
Y05484*
X04853D02*
Y05543D01*
X04882*
X04892Y05533*
Y05513*
X04882Y05503*
X04853*
X04952Y05543D02*
X04932Y05533D01*
X04912Y05513*
Y05494*
X04922Y05484*
X04942*
X04952Y05494*
Y05503*
X04942Y05513*
X04912*
X04253Y05484D02*
Y05543D01*
X04282*
X04292Y05533*
Y05513*
X04282Y05503*
X04253*
X04352Y05543D02*
X04312D01*
Y05513*
X04332Y05523*
X04342*
X04352Y05513*
Y05494*
X04342Y05484*
X04322*
X04312Y05494*
X03753Y05484D02*
Y05543D01*
X03782*
X03792Y05533*
Y05513*
X03782Y05503*
X03753*
X03842Y05484D02*
Y05543D01*
X03812Y05513*
X03852*
X06656Y01484D02*
Y01543D01*
X06685*
X06695Y01533*
Y01513*
X06685Y01503*
X06656*
X06715Y01533D02*
X06725Y01543D01*
X06745*
X06755Y01533*
Y01523*
X06745Y01513*
X06735*
X06745*
X06755Y01503*
Y01494*
X06745Y01484*
X06725*
X06715Y01494*
X02756Y01484D02*
Y01543D01*
X02785*
X02795Y01533*
Y01513*
X02785Y01503*
X02756*
X02855Y01484D02*
X02815D01*
X02855Y01523*
Y01533*
X02845Y01543*
X02825*
X02815Y01533*
X03056Y04584D02*
Y04643D01*
X03085*
X03095Y04633*
Y04613*
X03085Y04603*
X03056*
X03115Y04584D02*
X03135D01*
X03125*
Y04643*
X03115Y04633*
X0318Y02602D02*
Y02543D01*
X03219*
X03279Y02592D02*
X03269Y02602D01*
X03249*
X03239Y02592*
Y02553*
X03249Y02543*
X03269*
X03279Y02553*
X03299Y02602D02*
Y02543D01*
X03329*
X03339Y02553*
Y02592*
X03329Y02602*
X03299*
X03359Y02543D02*
X03379D01*
X03369*
Y02602*
X03359Y02592*
X06694Y04235D02*
X06684Y04245D01*
X06665*
X06655Y04235*
Y04196*
X06665Y04186*
X06684*
X06694Y04196*
X06714Y04235D02*
X06724Y04245D01*
X06744*
X06754Y04235*
Y04225*
X06744Y04215*
X06734*
X06744*
X06754Y04205*
Y04196*
X06744Y04186*
X06724*
X06714Y04196*
X04293Y03735D02*
X04283Y03745D01*
X04264*
X04254Y03735*
Y03696*
X04264Y03686*
X04283*
X04293Y03696*
X04353Y03686D02*
X04313D01*
X04353Y03725*
Y03735*
X04343Y03745*
X04323*
X04313Y03735*
X04293Y04035D02*
X04283Y04045D01*
X04264*
X04254Y04035*
Y03996*
X04264Y03986*
X04283*
X04293Y03996*
X04313Y03986D02*
X04333D01*
X04323*
Y04045*
X04313Y04035*
G54D15*
X06019Y01474D02*
Y02104D01*
X035Y01474D02*
X06019D01*
X035Y02104D02*
X06019D01*
X035Y01474D02*
Y02104D01*
X06334Y01081D02*
Y02498D01*
X03185Y01081D02*
X06334D01*
X03185D02*
Y02498D01*
X06334*
G54D16*
X05667Y04721D02*
D01*
D01*
G75*
G03X05628I-00019J0D01*
G74*G01*
D01*
G75*
G03X05667I00019J0D01*
G74*G01*
X05612Y02642D02*
Y04757D01*
X06187Y02642D02*
Y04757D01*
X05612D02*
X06187D01*
X05612Y02642D02*
X06187D01*
X0588Y037D02*
X05919D01*
X059Y0368D02*
Y03719D01*
G54D45*
X04962Y03809D02*
X05036D01*
Y03791*
X04962*
Y03809*
G54D14*
X04967Y03804D02*
X05031D01*
Y03796*
X04967*
Y03804*
M02*