%FSTAX23Y23*%
%MOIN*%
%SFA1B1*%

%IPPOS*%
%ADD16C,0.003940*%
%ADD43C,0.002000*%
%ADD44C,0.002670*%
G54D16*
X05667Y04721D02*
D01*
D01*
G75*
G03X05628I-00019J0D01*
G74*G01*
D01*
G75*
G03X05667I00019J0D01*
G74*G01*
X05612Y02642D02*
Y04757D01*
X06187Y02642D02*
Y04757D01*
X05612D02*
X06187D01*
X05612Y02642D02*
X06187D01*
X0588Y037D02*
X05919D01*
X059Y0368D02*
Y03719D01*
G54D43*
X03792Y05192D02*
Y05208D01*
X03808*
Y05192*
X03792*
Y05292D02*
Y05308D01*
X03808*
Y05292*
X03792*
Y05392D02*
Y05408D01*
X03808*
Y05392*
X03792*
X04292Y05192D02*
Y05208D01*
X04308*
Y05192*
X04292*
Y05292D02*
Y05308D01*
X04308*
Y05292*
X04292*
Y05392D02*
Y05408D01*
X04308*
Y05392*
X04292*
X04892Y05192D02*
Y05208D01*
X04908*
Y05192*
X04892*
Y05292D02*
Y05308D01*
X04908*
Y05292*
X04892*
Y05392D02*
Y05408D01*
X04908*
Y05392*
X04892*
X05492Y05192D02*
Y05208D01*
X05508*
Y05192*
X05492*
Y05292D02*
Y05308D01*
X05508*
Y05292*
X05492*
Y05392D02*
Y05408D01*
X05508*
Y05392*
X05492*
X05592Y04642D02*
Y04658D01*
X05608*
Y04642*
X05592*
Y04542D02*
Y04558D01*
X05608*
Y04542*
X05592*
Y04442D02*
Y04458D01*
X05608*
Y04442*
X05592*
Y04342D02*
Y04358D01*
X05608*
Y04342*
X05592*
Y04242D02*
Y04258D01*
X05608*
Y04242*
X05592*
Y04142D02*
Y04158D01*
X05608*
Y04142*
X05592*
Y04042D02*
Y04058D01*
X05608*
Y04042*
X05592*
Y03942D02*
Y03958D01*
X05608*
Y03942*
X05592*
Y03842D02*
Y03858D01*
X05608*
Y03842*
X05592*
Y03742D02*
Y03758D01*
X05608*
Y03742*
X05592*
Y03642D02*
Y03658D01*
X05608*
Y03642*
X05592*
Y03542D02*
Y03558D01*
X05608*
Y03542*
X05592*
Y03442D02*
Y03458D01*
X05608*
Y03442*
X05592*
Y03342D02*
Y03358D01*
X05608*
Y03342*
X05592*
Y03242D02*
Y03258D01*
X05608*
Y03242*
X05592*
Y03142D02*
Y03158D01*
X05608*
Y03142*
X05592*
Y03042D02*
Y03058D01*
X05608*
Y03042*
X05592*
Y02942D02*
Y02958D01*
X05608*
Y02942*
X05592*
Y02842D02*
Y02858D01*
X05608*
Y02842*
X05592*
Y02742D02*
Y02758D01*
X05608*
Y02742*
X05592*
X06192Y04642D02*
Y04658D01*
X06208*
Y04642*
X06192*
Y04542D02*
Y04558D01*
X06208*
Y04542*
X06192*
Y04442D02*
Y04458D01*
X06208*
Y04442*
X06192*
Y04342D02*
Y04358D01*
X06208*
Y04342*
X06192*
Y04242D02*
Y04258D01*
X06208*
Y04242*
X06192*
Y04142D02*
Y04158D01*
X06208*
Y04142*
X06192*
Y04042D02*
Y04058D01*
X06208*
Y04042*
X06192*
Y03942D02*
Y03958D01*
X06208*
Y03942*
X06192*
Y03842D02*
Y03858D01*
X06208*
Y03842*
X06192*
Y03742D02*
Y03758D01*
X06208*
Y03742*
X06192*
Y03642D02*
Y03658D01*
X06208*
Y03642*
X06192*
Y03542D02*
Y03558D01*
X06208*
Y03542*
X06192*
Y03442D02*
Y03458D01*
X06208*
Y03442*
X06192*
Y03342D02*
Y03358D01*
X06208*
Y03342*
X06192*
Y03242D02*
Y03258D01*
X06208*
Y03242*
X06192*
Y03142D02*
Y03158D01*
X06208*
Y03142*
X06192*
Y03042D02*
Y03058D01*
X06208*
Y03042*
X06192*
Y02942D02*
Y02958D01*
X06208*
Y02942*
X06192*
Y02842D02*
Y02858D01*
X06208*
Y02842*
X06192*
Y02742D02*
Y02758D01*
X06208*
Y02742*
X06192*
X02792Y01292D02*
Y01308D01*
X02808*
Y01292*
X02792*
Y01392D02*
Y01408D01*
X02808*
Y01392*
X02792*
X03992Y02392D02*
Y02408D01*
X04008*
Y02392*
X03992*
X04092D02*
Y02408D01*
X04108*
Y02392*
X04092*
X04192D02*
Y02408D01*
X04208*
Y02392*
X04192*
X03892D02*
Y02408D01*
X03908*
Y02392*
X03892*
X03592D02*
Y02408D01*
X03608*
Y02392*
X03592*
X03692D02*
Y02408D01*
X03708*
Y02392*
X03692*
X03792D02*
Y02408D01*
X03808*
Y02392*
X03792*
X04292D02*
Y02408D01*
X04308*
Y02392*
X04292*
X04792D02*
Y02408D01*
X04808*
Y02392*
X04792*
X04892D02*
Y02408D01*
X04908*
Y02392*
X04892*
X04992D02*
Y02408D01*
X05008*
Y02392*
X04992*
X04692D02*
Y02408D01*
X04708*
Y02392*
X04692*
X04392D02*
Y02408D01*
X04408*
Y02392*
X04392*
X04492D02*
Y02408D01*
X04508*
Y02392*
X04492*
X04592D02*
Y02408D01*
X04608*
Y02392*
X04592*
X03492D02*
Y02408D01*
X03508*
Y02392*
X03492*
X06692Y01292D02*
Y01308D01*
X06708*
Y01292*
X06692*
Y01392D02*
Y01408D01*
X06708*
Y01392*
X06692*
X05Y03692D02*
X04992Y03708D01*
X05008*
X05Y03692*
Y03892D02*
X04992Y03908D01*
X05008*
X05Y03892*
X039Y02692D02*
X03904Y02696D01*
X03908*
X03904Y027*
X03908Y02704*
X03904*
X039Y02708*
X03896Y02704*
X03892*
X03896Y027*
X03892Y02696*
X03896*
X039Y02692*
X038Y02892D02*
X03804Y02896D01*
X03808*
X03804Y029*
X03808Y02904*
X03804*
X038Y02908*
X03796Y02904*
X03792*
X03796Y029*
X03792Y02896*
X03796*
X038Y02892*
X037Y02692D02*
X03704Y02696D01*
X03708*
X03704Y027*
X03708Y02704*
X03704*
X037Y02708*
X03696Y02704*
X03692*
X03696Y027*
X03692Y02696*
X03696*
X037Y02692*
X03392Y04592D02*
Y04608D01*
X03408*
Y04592*
X03392*
Y04492D02*
Y04508D01*
X03408*
Y04492*
X03392*
Y04392D02*
Y04408D01*
X03408*
Y04392*
X03392*
Y04292D02*
Y04308D01*
X03408*
Y04292*
X03392*
Y04192D02*
Y04208D01*
X03408*
Y04192*
X03392*
Y04092D02*
Y04108D01*
X03408*
Y04092*
X03392*
Y03992D02*
Y04008D01*
X03408*
Y03992*
X03392*
Y03892D02*
Y03908D01*
X03408*
Y03892*
X03392*
X03692Y04592D02*
Y04608D01*
X03708*
Y04592*
X03692*
Y04492D02*
Y04508D01*
X03708*
Y04492*
X03692*
Y04392D02*
Y04408D01*
X03708*
Y04392*
X03692*
Y04292D02*
Y04308D01*
X03708*
Y04292*
X03692*
Y04192D02*
Y04208D01*
X03708*
Y04192*
X03692*
Y04092D02*
Y04108D01*
X03708*
Y04092*
X03692*
Y03992D02*
Y04008D01*
X03708*
Y03992*
X03692*
Y03892D02*
Y03908D01*
X03708*
Y03892*
X03692*
X03992Y04492D02*
X03996Y045D01*
X03992Y04508*
X04Y04504*
X04008Y04508*
X04004Y045*
X04008Y04492*
X04Y04496*
X03992Y04492*
X04392D02*
X04396Y045D01*
X04392Y04508*
X044Y04504*
X04408Y04508*
X04404Y045*
X04408Y04492*
X044Y04496*
X04392Y04492*
X03092Y04392D02*
Y04408D01*
X03108*
Y04392*
X03092*
Y04492D02*
Y04508D01*
X03108*
Y04492*
X03092*
X04796Y04546D02*
Y04542D01*
X04804*
Y04546*
X04808*
Y04554*
X04804*
Y04558*
X04796*
Y04554*
X04792*
Y04546*
X04796*
X04996D02*
Y04542D01*
X05004*
Y04546*
X05008*
Y04554*
X05004*
Y04558*
X04996*
Y04554*
X04992*
Y04546*
X04996*
Y04646D02*
Y04642D01*
X05004*
Y04646*
X05008*
Y04654*
X05004*
Y04658*
X04996*
Y04654*
X04992*
Y04646*
X04996*
X04796D02*
Y04642D01*
X04804*
Y04646*
X04808*
Y04654*
X04804*
Y04658*
X04796*
Y04654*
X04792*
Y04646*
X04796*
X03212Y01612D02*
X03216D01*
X0322Y01616*
X03224Y01612*
X03228*
Y01616*
X03224Y0162*
X03228Y01624*
Y01628*
X03224*
X0322Y01624*
X03216Y01628*
X03212*
Y01624*
X03216Y0162*
X03212Y01616*
Y01612*
X05528Y04307D02*
X05532D01*
X05536Y04311*
X0554Y04307*
X05544*
Y04311*
X0554Y04315*
X05544Y04319*
Y04323*
X0554*
X05536Y04319*
X05532Y04323*
X05528*
Y04319*
X05532Y04315*
X05528Y04311*
Y04307*
X03772Y01932D02*
X03776D01*
X0378Y01936*
X03784Y01932*
X03788*
Y01936*
X03784Y0194*
X03788Y01944*
Y01948*
X03784*
X0378Y01944*
X03776Y01948*
X03772*
Y01944*
X03776Y0194*
X03772Y01936*
Y01932*
G54D44*
X06708Y041D02*
D01*
D01*
G75*
G03X06692I-00008J0D01*
G74*G01*
D01*
G75*
G03X06708I00008J0D01*
G74*G01*
Y03903D02*
D01*
D01*
G75*
G03X06692I-00008J0D01*
G74*G01*
D01*
G75*
G03X06708I00008J0D01*
G74*G01*
X04308Y039D02*
D01*
D01*
G75*
G03X04292I-00008J0D01*
G74*G01*
D01*
G75*
G03X04308I00008J0D01*
G74*G01*
X04504D02*
D01*
D01*
G75*
G03X04488I-00008J0D01*
G74*G01*
D01*
G75*
G03X04504I00008J0D01*
G74*G01*
X04308Y036D02*
D01*
D01*
G75*
G03X04292I-00008J0D01*
G74*G01*
D01*
G75*
G03X04308I00008J0D01*
G74*G01*
X04504D02*
D01*
D01*
G75*
G03X04488I-00008J0D01*
G74*G01*
D01*
G75*
G03X04504I00008J0D01*
G74*G01*
M02*