%TF.GenerationSoftware,Altium Limited,Altium Designer,22.0.2 (36)*%
G04 Layer_Color=8388736*
%FSLAX26Y26*%
%MOIN*%
%TF.SameCoordinates,18AA30F0-C86B-41F5-80B4-D111BAE5B25F*%
%TF.FilePolarity,Negative*%
%TF.FileFunction,Soldermask,Top*%
%TF.Part,Single*%
G01*
G75*
%TA.AperFunction,SMDPad,CuDef*%
%ADD10R,0.068898X0.030000*%
%ADD11R,0.022000X0.050000*%
%ADD12R,0.080000X0.074000*%
%TA.AperFunction,ViaPad*%
%ADD17C,0.068000*%
%TA.AperFunction,SMDPad,CuDef*%
%ADD20R,0.074929X0.051307*%
D10*
X4700000Y2459000D02*
D03*
Y2341000D02*
D03*
X5100000Y2459000D02*
D03*
Y2341000D02*
D03*
X6200000Y2459000D02*
D03*
Y2341000D02*
D03*
X5800000Y2459000D02*
D03*
Y2341000D02*
D03*
X6300000Y2059000D02*
D03*
Y1941000D02*
D03*
X6000000Y2059000D02*
D03*
Y1941000D02*
D03*
X5700000Y2059000D02*
D03*
Y1941000D02*
D03*
X5100000Y1559000D02*
D03*
Y1441000D02*
D03*
D11*
X5400000Y2400000D02*
D03*
X5436024Y2324000D02*
D03*
X5363976D02*
D03*
D12*
X4800000Y1911000D02*
D03*
Y2089000D02*
D03*
X5500000Y1411000D02*
D03*
Y1589000D02*
D03*
D17*
X6500000Y2000000D02*
D03*
Y1700000D02*
D03*
X4500000Y2800000D02*
D03*
X4700000D02*
D03*
D20*
X4800000Y1553150D02*
D03*
Y1446850D02*
D03*
X5900000Y1553150D02*
D03*
Y1446850D02*
D03*
%TF.MD5,e1d1036f1a64d2dbbc19bc4c1886cd61*%
M02*
