%TF.GenerationSoftware,Altium Limited,Altium Designer,22.0.2 (36)*%
G04 Layer_Color=16711935*
%FSLAX26Y26*%
%MOIN*%
%TF.SameCoordinates,18AA30F0-C86B-41F5-80B4-D111BAE5B25F*%
%TF.FilePolarity,Positive*%
%TF.FileFunction,Other,Mechanical_5*%
%TF.Part,Single*%
G01*
G75*
G36*
X6249449Y2311000D02*
X6150551D01*
Y2489000D01*
X6249449D01*
Y2311000D01*
D02*
G37*
G36*
X5849449D02*
X5750551D01*
Y2489000D01*
X5849449D01*
Y2311000D01*
D02*
G37*
G36*
X5149449D02*
X5050551D01*
Y2489000D01*
X5149449D01*
Y2311000D01*
D02*
G37*
G36*
X4749449D02*
X4650551D01*
Y2489000D01*
X4749449D01*
Y2311000D01*
D02*
G37*
G36*
X5484000Y2274000D02*
X5316000D01*
Y2450000D01*
X5484000D01*
Y2274000D01*
D02*
G37*
G36*
X6349449Y1911000D02*
X6250551D01*
Y2089000D01*
X6349449D01*
Y1911000D01*
D02*
G37*
G36*
X6049449D02*
X5950551D01*
Y2089000D01*
X6049449D01*
Y1911000D01*
D02*
G37*
G36*
X5749449D02*
X5650551D01*
Y2089000D01*
X5749449D01*
Y1911000D01*
D02*
G37*
G36*
X4863000Y1866500D02*
X4737000D01*
Y2133500D01*
X4863000D01*
Y1866500D01*
D02*
G37*
G36*
X5149449Y1411000D02*
X5050551D01*
Y1589000D01*
X5149449D01*
Y1411000D01*
D02*
G37*
G36*
X5563000Y1366500D02*
X5437000D01*
Y1633500D01*
X5563000D01*
Y1366500D01*
D02*
G37*
%TF.MD5,75368e777e73db81cb0288d868faf7bd*%
M02*
