%TF.GenerationSoftware,Altium Limited,Altium Designer,22.0.2 (36)*%
G04 Layer_Physical_Order=1*
G04 Layer_Color=255*
%FSLAX26Y26*%
%MOIN*%
%TF.SameCoordinates,78F3E5F7-FCA1-4231-9FF1-04497C850479*%
%TF.FilePolarity,Positive*%
%TF.FileFunction,Copper,L1,Top,Signal*%
%TF.Part,Single*%
G01*
G75*
%TA.AperFunction,SMDPad,CuDef*%
%ADD10R,0.068898X0.030000*%
%ADD11R,0.022000X0.050000*%
%ADD12R,0.080000X0.074000*%
%ADD13R,0.043307X0.066929*%
%ADD14R,0.066929X0.043307*%
%TA.AperFunction,Conductor*%
%ADD15C,0.050000*%
%TA.AperFunction,ViaPad*%
%ADD16C,0.060000*%
D10*
X400000Y1359000D02*
D03*
Y1241000D02*
D03*
X800000Y1359000D02*
D03*
Y1241000D02*
D03*
X1900000Y1359000D02*
D03*
Y1241000D02*
D03*
X1500000Y1359000D02*
D03*
Y1241000D02*
D03*
X2000000Y959000D02*
D03*
Y841000D02*
D03*
X1700000Y959000D02*
D03*
Y841000D02*
D03*
X1400000Y959000D02*
D03*
Y841000D02*
D03*
X800000Y459000D02*
D03*
Y341000D02*
D03*
D11*
X1100000Y1300000D02*
D03*
X1136024Y1224000D02*
D03*
X1063976D02*
D03*
D12*
X500000Y811000D02*
D03*
Y989000D02*
D03*
X1200000Y311000D02*
D03*
Y489000D02*
D03*
D13*
X603150Y350000D02*
D03*
X496850D02*
D03*
D14*
X1600000Y453150D02*
D03*
Y346850D02*
D03*
D15*
X510000Y1241000D02*
X600000Y1151000D01*
X503000Y811000D02*
X536333Y844333D01*
X570711D02*
X600000Y873623D01*
X500000Y811000D02*
X503000D01*
X536333Y844333D02*
X570711D01*
X600000Y873623D02*
Y1151000D01*
X603150Y348846D02*
X606496Y345500D01*
X603150Y348846D02*
Y350000D01*
X606496Y345500D02*
X795500D01*
X800000Y341000D01*
X571000Y129000D02*
X2029000D01*
X496850Y203150D02*
X571000Y129000D01*
X496850Y203150D02*
Y350000D01*
X498425Y809425D02*
X500000Y811000D01*
X498425Y351575D02*
Y809425D01*
X496850Y350000D02*
X498425Y351575D01*
X2029000Y129000D02*
X2200000Y300000D01*
X1029289Y219000D02*
X1413150D01*
X1000000Y248289D02*
X1029289Y219000D01*
X1000000Y248289D02*
Y382711D01*
X1029289Y412000D02*
X1307000D01*
X1000000Y382711D02*
X1029289Y412000D01*
X1000000Y500000D02*
X1189000D01*
X1200000Y489000D01*
X800000Y459000D02*
X959000D01*
X1000000Y500000D01*
X1324000Y429000D02*
Y573000D01*
X1307000Y412000D02*
X1324000Y429000D01*
X1063976Y1036024D02*
Y1224000D01*
X1259000Y841000D02*
X1400000D01*
X1063976Y1036024D02*
X1259000Y841000D01*
X979224Y1300000D02*
X985000Y1294224D01*
Y912000D02*
Y1294224D01*
X920224Y1359000D02*
X979224Y1300000D01*
X1100000D01*
X800000Y1359000D02*
X920224D01*
X1160000Y1224000D02*
Y1231000D01*
X873000Y1700000D02*
X1160000Y1413000D01*
X1136024Y1224000D02*
X1153000D01*
X1160000Y1231000D01*
Y1413000D01*
X1153000Y1224000D02*
X1160000D01*
X700000Y1700000D02*
X873000D01*
X400000Y1241000D02*
X510000D01*
X1160000Y1231000D02*
X1288000Y1359000D01*
X1400000Y841000D02*
X1650000D01*
X1450000Y959000D02*
X1700000D01*
X1650000Y841000D02*
X1700000D01*
X1600000Y791000D02*
X1650000Y841000D01*
X1600000Y453150D02*
Y791000D01*
X985000Y912000D02*
X1324000Y573000D01*
X1413150Y219000D02*
X1541000Y346850D01*
X1600000D01*
X1500000Y1009000D02*
Y1241000D01*
X1450000Y959000D02*
X1500000Y1009000D01*
X1400000Y959000D02*
X1450000D01*
X1900000Y1009000D02*
Y1241000D01*
Y1009000D02*
X1950000Y959000D01*
X2000000D01*
X1562150Y453150D02*
X1600000D01*
X1420000Y311000D02*
X1562150Y453150D01*
X1200000Y311000D02*
X1420000D01*
X1900000Y1359000D02*
X2100000D01*
X2200000Y1259000D01*
Y900000D02*
Y1259000D01*
X200000Y1089000D02*
Y1700000D01*
Y1089000D02*
X300000Y989000D01*
X500000D01*
X1288000Y1359000D02*
X1500000D01*
X510000Y1241000D02*
X800000D01*
X1500000Y1359000D02*
X1900000D01*
X1700000Y841000D02*
X2000000D01*
X400000Y1359000D02*
X800000D01*
X1700000Y959000D02*
X1950000D01*
D16*
X2200000Y900000D02*
D03*
Y300000D02*
D03*
X200000Y1700000D02*
D03*
X700000D02*
D03*
%TF.MD5,08d6b61e2fa02d48f4a2800e375c7218*%
M02*
