%TF.GenerationSoftware,Altium Limited,Altium Designer,22.0.2 (36)*%
G04 Layer_Color=32768*
%FSLAX26Y26*%
%MOIN*%
%TF.SameCoordinates,18AA30F0-C86B-41F5-80B4-D111BAE5B25F*%
%TF.FilePolarity,Positive*%
%TF.FileFunction,Other,Mechanical_15*%
%TF.Part,Single*%
G01*
G75*
%TA.AperFunction,NonConductor*%
%ADD18C,0.006000*%
%ADD23C,0.003937*%
G36*
X6244449Y2316000D02*
X6155551D01*
Y2484000D01*
X6244449D01*
Y2316000D01*
D02*
G37*
G36*
X5844449D02*
X5755551D01*
Y2484000D01*
X5844449D01*
Y2316000D01*
D02*
G37*
G36*
X5144449D02*
X5055551D01*
Y2484000D01*
X5144449D01*
Y2316000D01*
D02*
G37*
G36*
X4744449D02*
X4655551D01*
Y2484000D01*
X4744449D01*
Y2316000D01*
D02*
G37*
G36*
X5421000Y2399500D02*
X5469000D01*
Y2324500D01*
X5457024D01*
Y2289000D01*
X5342976D01*
Y2324500D01*
X5331000D01*
Y2399500D01*
X5379000D01*
Y2435000D01*
X5421000D01*
Y2399500D01*
D02*
G37*
G36*
X6344449Y1916000D02*
X6255551D01*
Y2084000D01*
X6344449D01*
Y1916000D01*
D02*
G37*
G36*
X6044449D02*
X5955551D01*
Y2084000D01*
X6044449D01*
Y1916000D01*
D02*
G37*
G36*
X5744449D02*
X5655551D01*
Y2084000D01*
X5744449D01*
Y1916000D01*
D02*
G37*
G36*
X4865500Y1864000D02*
X4734500D01*
Y2136000D01*
X4865500D01*
Y1864000D01*
D02*
G37*
G36*
X5144449Y1416000D02*
X5055551D01*
Y1584000D01*
X5144449D01*
Y1416000D01*
D02*
G37*
G36*
X5565500Y1364000D02*
X5434500D01*
Y1636000D01*
X5565500D01*
Y1364000D01*
D02*
G37*
D18*
X4744448Y2316000D02*
Y2484000D01*
X4655552D02*
X4744448D01*
X4655552Y2316000D02*
Y2484000D01*
Y2316000D02*
X4744448D01*
X5342976Y2289000D02*
X5457024D01*
X5342976D02*
Y2324500D01*
X5457024Y2289000D02*
Y2324500D01*
X5331000D02*
X5342976D01*
X5457024D02*
X5469000D01*
Y2399500D01*
X5421000D02*
X5469000D01*
X5421000D02*
Y2435000D01*
X5379000D02*
X5421000D01*
X5379000Y2399500D02*
Y2435000D01*
X5331000Y2399500D02*
X5379000D01*
X5331000Y2324500D02*
Y2399500D01*
X4734500Y1864000D02*
X4865500D01*
X4734500D02*
Y2136000D01*
X4865500D01*
Y1864000D02*
Y2136000D01*
X5144448Y2316000D02*
Y2484000D01*
X5055552D02*
X5144448D01*
X5055552Y2316000D02*
Y2484000D01*
Y2316000D02*
X5144448D01*
X6244448D02*
Y2484000D01*
X6155552D02*
X6244448D01*
X6155552Y2316000D02*
Y2484000D01*
Y2316000D02*
X6244448D01*
X5844448D02*
Y2484000D01*
X5755552D02*
X5844448D01*
X5755552Y2316000D02*
Y2484000D01*
Y2316000D02*
X5844448D01*
X6344448Y1916000D02*
Y2084000D01*
X6255552D02*
X6344448D01*
X6255552Y1916000D02*
Y2084000D01*
Y1916000D02*
X6344448D01*
X6044448D02*
Y2084000D01*
X5955552D02*
X6044448D01*
X5955552Y1916000D02*
Y2084000D01*
Y1916000D02*
X6044448D01*
X5744448D02*
Y2084000D01*
X5655552D02*
X5744448D01*
X5655552Y1916000D02*
Y2084000D01*
Y1916000D02*
X5744448D01*
X5434500Y1364000D02*
X5565500D01*
X5434500D02*
Y1636000D01*
X5565500D01*
Y1364000D02*
Y1636000D01*
X5144448Y1416000D02*
Y1584000D01*
X5055552D02*
X5144448D01*
X5055552Y1416000D02*
Y1584000D01*
Y1416000D02*
X5144448D01*
D23*
X4780314Y1500000D02*
X4819686D01*
X4800000Y1480316D02*
Y1519686D01*
X4837402Y1421260D02*
Y1578740D01*
X4762598Y1421260D02*
Y1578740D01*
X4837402D01*
X4762598Y1421260D02*
X4837402D01*
X5880314Y1500000D02*
X5919686D01*
X5900000Y1480316D02*
Y1519686D01*
X5937402Y1421260D02*
Y1578740D01*
X5862598Y1421260D02*
Y1578740D01*
X5937402D01*
X5862598Y1421260D02*
X5937402D01*
%TF.MD5,e804dfe6795da8df2a7ed08a3cb16827*%
M02*
