M48
;Layer_Color=9474304
;FILE_FORMAT=2:5
INCH,LZ
;TYPE=PLATED
T1F00S00C0.02800
T2F00S00C0.03100
T3F00S00C0.03346
T4F00S00C0.03400
T5F00S00C0.03500
T6F00S00C0.03543
T7F00S00C0.04331
%
T01
X0322Y0162
X0378Y0194
X05536Y04315
T02
X043Y036
X0449685
Y039
X043
X067Y0390315
Y041
T03
X04Y045
X044
T04
X05Y037
Y039
T05
X037Y027
X039
X038Y029
T06
X028Y013
Y014
X067
Y013
X062Y0275
Y0285
Y0295
Y0305
X056
Y0295
Y0285
Y0275
X05Y024
X049
X048
X047
X046
X045
X044
X043
X042
X041
X04
X039
X038
X037
X036
X035
X031Y044
Y045
X034
Y046
Y044
Y043
Y042
Y041
Y04
Y039
X037
Y04
Y041
Y042
Y043
Y044
Y045
Y046
X056Y0465
Y0455
Y0445
Y0435
Y0425
Y0415
Y0405
Y0395
Y0385
Y0375
Y0365
Y0355
Y0345
Y0335
Y0325
Y0315
X062
Y0325
Y0335
Y0345
Y0355
Y0365
Y0375
Y0385
Y0395
Y0405
Y0415
Y0425
Y0435
Y0445
Y0455
Y0465
X055Y052
Y053
Y054
X049
Y053
Y052
X043
Y053
Y054
X038
Y053
Y052
T07
X048Y0455
Y0465
X05
Y0455
M30
