G04*
G04 #@! TF.GenerationSoftware,Altium Limited,Altium Designer,22.0.2 (36)*
G04*
G04 Layer_Color=255*
%FSLAX25Y25*%
%MOIN*%
G70*
G04*
G04 #@! TF.SameCoordinates,814A3CDE-6894-4AC5-8A30-7A96F4401CB6*
G04*
G04*
G04 #@! TF.FilePolarity,Positive*
G04*
G01*
G75*
%ADD16C,0.00394*%
%ADD30R,0.05906X0.05906*%
%ADD31C,0.05906*%
%ADD32R,0.05906X0.05906*%
%ADD33O,0.07500X0.08000*%
%ADD34O,0.06000X0.08000*%
%ADD35O,0.08000X0.07500*%
%ADD36C,0.07500*%
%ADD37C,0.05906*%
%ADD38R,0.05906X0.05906*%
%ADD39C,0.05512*%
%ADD40C,0.07284*%
%ADD41R,0.07284X0.07284*%
D16*
X566772Y472165D02*
G03*
X566772Y472165I-1969J0D01*
G01*
X561260Y264291D02*
Y475709D01*
X618740Y264291D02*
Y475709D01*
X561260D02*
X618740D01*
X561260Y264291D02*
X618740D01*
X588032Y370000D02*
X591969D01*
X590000Y368032D02*
Y371969D01*
D30*
X380000Y520000D02*
D03*
X430000D02*
D03*
X490000D02*
D03*
X550000D02*
D03*
X280000Y130000D02*
D03*
X670000D02*
D03*
X310000Y440000D02*
D03*
D31*
X380000Y530000D02*
D03*
Y540000D02*
D03*
X430000Y530000D02*
D03*
Y540000D02*
D03*
X490000Y530000D02*
D03*
Y540000D02*
D03*
X550000Y530000D02*
D03*
Y540000D02*
D03*
X560000Y455000D02*
D03*
Y445000D02*
D03*
Y435000D02*
D03*
Y425000D02*
D03*
Y415000D02*
D03*
Y405000D02*
D03*
Y395000D02*
D03*
Y385000D02*
D03*
Y375000D02*
D03*
Y365000D02*
D03*
Y355000D02*
D03*
Y345000D02*
D03*
Y335000D02*
D03*
Y325000D02*
D03*
Y315000D02*
D03*
Y305000D02*
D03*
Y295000D02*
D03*
Y285000D02*
D03*
Y275000D02*
D03*
X620000Y465000D02*
D03*
Y455000D02*
D03*
Y445000D02*
D03*
Y435000D02*
D03*
Y425000D02*
D03*
Y415000D02*
D03*
Y405000D02*
D03*
Y395000D02*
D03*
Y385000D02*
D03*
Y375000D02*
D03*
Y365000D02*
D03*
Y355000D02*
D03*
Y345000D02*
D03*
Y335000D02*
D03*
Y325000D02*
D03*
Y315000D02*
D03*
Y305000D02*
D03*
Y295000D02*
D03*
Y285000D02*
D03*
Y275000D02*
D03*
X280000Y140000D02*
D03*
X670000D02*
D03*
X310000Y450000D02*
D03*
D32*
X560000Y465000D02*
D03*
D33*
X670000Y410000D02*
D03*
Y390315D02*
D03*
D34*
X400000Y240000D02*
D03*
X410000D02*
D03*
X420000D02*
D03*
X390000D02*
D03*
X360000D02*
D03*
X370000D02*
D03*
X380000D02*
D03*
X430000D02*
D03*
X480000D02*
D03*
X490000D02*
D03*
X500000D02*
D03*
X470000D02*
D03*
X440000D02*
D03*
X450000D02*
D03*
X460000D02*
D03*
X350000D02*
D03*
D35*
X430000Y390000D02*
D03*
X449685D02*
D03*
X430000Y360000D02*
D03*
X449685D02*
D03*
D36*
X500000Y370000D02*
D03*
Y390000D02*
D03*
X390000Y270000D02*
D03*
X380000Y290000D02*
D03*
X370000Y270000D02*
D03*
D37*
X340000Y460000D02*
D03*
Y450000D02*
D03*
Y440000D02*
D03*
Y430000D02*
D03*
Y420000D02*
D03*
Y410000D02*
D03*
Y400000D02*
D03*
Y390000D02*
D03*
X370000Y460000D02*
D03*
Y450000D02*
D03*
Y440000D02*
D03*
Y430000D02*
D03*
Y420000D02*
D03*
Y410000D02*
D03*
Y400000D02*
D03*
D38*
Y390000D02*
D03*
D39*
X400000Y450000D02*
D03*
X440000D02*
D03*
D40*
X480000Y455000D02*
D03*
X500000D02*
D03*
Y465000D02*
D03*
D41*
X480000D02*
D03*
M02*
