G04*
G04 #@! TF.GenerationSoftware,Altium Limited,Altium Designer,22.0.2 (36)*
G04*
G04 Layer_Color=65535*
%FSLAX44Y44*%
%MOMM*%
G71*
G04*
G04 #@! TF.SameCoordinates,7D36B465-A226-4CCE-8017-CD82C348BD42*
G04*
G04*
G04 #@! TF.FilePolarity,Positive*
G04*
G01*
G75*
%ADD10C,0.1524*%
%ADD11C,0.2000*%
%ADD12C,0.2540*%
%ADD13C,0.0000*%
%ADD14C,0.0254*%
%ADD15C,0.1000*%
G36*
X1587360Y586994D02*
X1562240D01*
Y632206D01*
X1587360D01*
Y586994D01*
D02*
G37*
G36*
X1485760D02*
X1460640D01*
Y632206D01*
X1485760D01*
Y586994D01*
D02*
G37*
G36*
X1307960D02*
X1282840D01*
Y632206D01*
X1307960D01*
Y586994D01*
D02*
G37*
G36*
X1206360D02*
X1181240D01*
Y632206D01*
X1206360D01*
Y586994D01*
D02*
G37*
G36*
X1392936Y577596D02*
X1350264D01*
Y622300D01*
X1392936D01*
Y577596D01*
D02*
G37*
G36*
X1612760Y485394D02*
X1587640D01*
Y530606D01*
X1612760D01*
Y485394D01*
D02*
G37*
G36*
X1536560D02*
X1511440D01*
Y530606D01*
X1536560D01*
Y485394D01*
D02*
G37*
G36*
X1460360D02*
X1435240D01*
Y530606D01*
X1460360D01*
Y485394D01*
D02*
G37*
G36*
X1235837Y473456D02*
X1202563D01*
Y542544D01*
X1235837D01*
Y473456D01*
D02*
G37*
G36*
X1307960Y358394D02*
X1282840D01*
Y403606D01*
X1307960D01*
Y358394D01*
D02*
G37*
G36*
X1413637Y346456D02*
X1380363D01*
Y415544D01*
X1413637D01*
Y346456D01*
D02*
G37*
D10*
X1345184Y587502D02*
G03*
X1345184Y587502I-1270J0D01*
G01*
X1219962Y467106D02*
G03*
X1219962Y467106I-762J0D01*
G01*
X1397762Y340106D02*
G03*
X1397762Y340106I-762J0D01*
G01*
X1183780Y601499D02*
Y617701D01*
X1203820Y601499D02*
Y617701D01*
X1355344Y591693D02*
Y608203D01*
X1377721D02*
X1387856D01*
Y591693D02*
Y608203D01*
X1368571Y591693D02*
X1374629D01*
X1355344Y608203D02*
X1365479D01*
X1203833Y531876D02*
X1205713D01*
X1234567Y484124D02*
Y531876D01*
X1232687D02*
X1234567D01*
X1203833Y484124D02*
Y531876D01*
Y484124D02*
X1205713D01*
X1232687D02*
X1234567D01*
X1285380Y601499D02*
Y617701D01*
X1305420Y601499D02*
Y617701D01*
X1564780Y601499D02*
Y617701D01*
X1584820Y601499D02*
Y617701D01*
X1463180Y601499D02*
Y617701D01*
X1483220Y601499D02*
Y617701D01*
X1590180Y499899D02*
Y516101D01*
X1610220Y499899D02*
Y516101D01*
X1513980Y499899D02*
Y516101D01*
X1534020Y499899D02*
Y516101D01*
X1437780Y499899D02*
Y516101D01*
X1457820Y499899D02*
Y516101D01*
X1381633Y404876D02*
X1383513D01*
X1412367Y357124D02*
Y404876D01*
X1410487D02*
X1412367D01*
X1381633Y357124D02*
Y404876D01*
Y357124D02*
X1383513D01*
X1410487D02*
X1412367D01*
X1285380Y372899D02*
Y389101D01*
X1305420Y372899D02*
Y389101D01*
X1205090Y588264D02*
Y630936D01*
X1182510D02*
X1205090D01*
X1182510Y588264D02*
Y630936D01*
Y588264D02*
X1205090D01*
X1357116Y581406D02*
X1386084D01*
X1357116D02*
Y590423D01*
X1386084Y581406D02*
Y590423D01*
X1354074D02*
X1357116D01*
X1386084D02*
X1389126D01*
Y609473D01*
X1376934D02*
X1389126D01*
X1376934D02*
Y618490D01*
X1366266D02*
X1376934D01*
X1366266Y609473D02*
Y618490D01*
X1354074Y609473D02*
X1366266D01*
X1354074Y590423D02*
Y609473D01*
X1202563Y473456D02*
X1235837D01*
X1202563D02*
Y542544D01*
X1235837D01*
Y473456D02*
Y542544D01*
X1306690Y588264D02*
Y630936D01*
X1284110D02*
X1306690D01*
X1284110Y588264D02*
Y630936D01*
Y588264D02*
X1306690D01*
X1586090D02*
Y630936D01*
X1563510D02*
X1586090D01*
X1563510Y588264D02*
Y630936D01*
Y588264D02*
X1586090D01*
X1484490D02*
Y630936D01*
X1461910D02*
X1484490D01*
X1461910Y588264D02*
Y630936D01*
Y588264D02*
X1484490D01*
X1611490Y486664D02*
Y529336D01*
X1588910D02*
X1611490D01*
X1588910Y486664D02*
Y529336D01*
Y486664D02*
X1611490D01*
X1535290D02*
Y529336D01*
X1512710D02*
X1535290D01*
X1512710Y486664D02*
Y529336D01*
Y486664D02*
X1535290D01*
X1459090D02*
Y529336D01*
X1436510D02*
X1459090D01*
X1436510Y486664D02*
Y529336D01*
Y486664D02*
X1459090D01*
X1380363Y346456D02*
X1413637D01*
X1380363D02*
Y415544D01*
X1413637D01*
Y346456D02*
Y415544D01*
X1306690Y359664D02*
Y402336D01*
X1284110D02*
X1306690D01*
X1284110Y359664D02*
Y402336D01*
Y359664D02*
X1306690D01*
D11*
X1226700Y377000D02*
Y385000D01*
X1211700Y377000D02*
Y385000D01*
X1506100Y377000D02*
Y385000D01*
X1491100Y377000D02*
Y385000D01*
D12*
X1183894Y639826D02*
Y655061D01*
X1191512D01*
X1194051Y652522D01*
Y647443D01*
X1191512Y644904D01*
X1183894D01*
X1188972D02*
X1194051Y639826D01*
X1199129D02*
X1204207D01*
X1201668D01*
Y655061D01*
X1199129Y652522D01*
X1354579Y632459D02*
Y642616D01*
X1352039Y645155D01*
X1346961D01*
X1344422Y642616D01*
Y632459D01*
X1346961Y629920D01*
X1352039D01*
X1349500Y634998D02*
X1354579Y629920D01*
X1352039D02*
X1354579Y632459D01*
X1359657Y629920D02*
X1364735D01*
X1362196D01*
Y645155D01*
X1359657Y642616D01*
X1214625Y563622D02*
X1212085Y566161D01*
X1207007D01*
X1204468Y563622D01*
Y553465D01*
X1207007Y550926D01*
X1212085D01*
X1214625Y553465D01*
X1219703Y550926D02*
Y566161D01*
X1227321D01*
X1229860Y563622D01*
Y558544D01*
X1227321Y556004D01*
X1219703D01*
X1224781D02*
X1229860Y550926D01*
X1234938D02*
X1240016D01*
X1237477D01*
Y566161D01*
X1234938Y563622D01*
X1285494Y639826D02*
Y655061D01*
X1293112D01*
X1295651Y652522D01*
Y647443D01*
X1293112Y644904D01*
X1285494D01*
X1290572D02*
X1295651Y639826D01*
X1310886D02*
X1300729D01*
X1310886Y649983D01*
Y652522D01*
X1308347Y655061D01*
X1303268D01*
X1300729Y652522D01*
X1564894Y639826D02*
Y655061D01*
X1572511D01*
X1575051Y652522D01*
Y647443D01*
X1572511Y644904D01*
X1564894D01*
X1569972D02*
X1575051Y639826D01*
X1590286Y655061D02*
X1580129D01*
Y647443D01*
X1585207Y649983D01*
X1587747D01*
X1590286Y647443D01*
Y642365D01*
X1587747Y639826D01*
X1582668D01*
X1580129Y642365D01*
X1463294Y639826D02*
Y655061D01*
X1470912D01*
X1473451Y652522D01*
Y647443D01*
X1470912Y644904D01*
X1463294D01*
X1468372D02*
X1473451Y639826D01*
X1488686Y655061D02*
X1483607Y652522D01*
X1478529Y647443D01*
Y642365D01*
X1481068Y639826D01*
X1486147D01*
X1488686Y642365D01*
Y644904D01*
X1486147Y647443D01*
X1478529D01*
X1211834Y424429D02*
Y409194D01*
X1219452D01*
X1221991Y411733D01*
Y421890D01*
X1219452Y424429D01*
X1211834D01*
X1227069Y409194D02*
X1232147D01*
X1229608D01*
Y424429D01*
X1227069Y421890D01*
X1491234Y424429D02*
Y409194D01*
X1498851D01*
X1501391Y411733D01*
Y421890D01*
X1498851Y424429D01*
X1491234D01*
X1516626Y409194D02*
X1506469D01*
X1516626Y419351D01*
Y421890D01*
X1514087Y424429D01*
X1509008D01*
X1506469Y421890D01*
X1590294Y538226D02*
Y553461D01*
X1597912D01*
X1600451Y550922D01*
Y545844D01*
X1597912Y543304D01*
X1590294D01*
X1595372D02*
X1600451Y538226D01*
X1605529Y540765D02*
X1608068Y538226D01*
X1613147D01*
X1615686Y540765D01*
Y550922D01*
X1613147Y553461D01*
X1608068D01*
X1605529Y550922D01*
Y548383D01*
X1608068Y545844D01*
X1615686D01*
X1514094Y538226D02*
Y553461D01*
X1521711D01*
X1524251Y550922D01*
Y545844D01*
X1521711Y543304D01*
X1514094D01*
X1519172D02*
X1524251Y538226D01*
X1529329Y550922D02*
X1531868Y553461D01*
X1536947D01*
X1539486Y550922D01*
Y548383D01*
X1536947Y545844D01*
X1539486Y543304D01*
Y540765D01*
X1536947Y538226D01*
X1531868D01*
X1529329Y540765D01*
Y543304D01*
X1531868Y545844D01*
X1529329Y548383D01*
Y550922D01*
X1531868Y545844D02*
X1536947D01*
X1437894Y538226D02*
Y553461D01*
X1445511D01*
X1448051Y550922D01*
Y545844D01*
X1445511Y543304D01*
X1437894D01*
X1442972D02*
X1448051Y538226D01*
X1453129Y553461D02*
X1463286D01*
Y550922D01*
X1453129Y540765D01*
Y538226D01*
X1392425Y436622D02*
X1389886Y439161D01*
X1384807D01*
X1382268Y436622D01*
Y426465D01*
X1384807Y423926D01*
X1389886D01*
X1392425Y426465D01*
X1397503Y423926D02*
Y439161D01*
X1405121D01*
X1407660Y436622D01*
Y431544D01*
X1405121Y429004D01*
X1397503D01*
X1402581D02*
X1407660Y423926D01*
X1422895D02*
X1412738D01*
X1422895Y434083D01*
Y436622D01*
X1420356Y439161D01*
X1415277D01*
X1412738Y436622D01*
X1285494Y411226D02*
Y426461D01*
X1293112D01*
X1295651Y423922D01*
Y418843D01*
X1293112Y416304D01*
X1285494D01*
X1290572D02*
X1295651Y411226D01*
X1300729Y423922D02*
X1303268Y426461D01*
X1308347D01*
X1310886Y423922D01*
Y421383D01*
X1308347Y418843D01*
X1305807D01*
X1308347D01*
X1310886Y416304D01*
Y413765D01*
X1308347Y411226D01*
X1303268D01*
X1300729Y413765D01*
D13*
X1360424Y595503D02*
G03*
X1360424Y595503I-1270J0D01*
G01*
X1219962Y485394D02*
G03*
X1219962Y485394I-762J0D01*
G01*
X1397762Y358394D02*
G03*
X1397762Y358394I-762J0D01*
G01*
D14*
X1185050Y592836D02*
X1202550D01*
X1185050D02*
Y626364D01*
X1202550D01*
Y592836D02*
Y626364D01*
X1185050Y620776D02*
Y626364D01*
X1202550D01*
Y620776D02*
Y626364D01*
X1185050Y620776D02*
X1202550D01*
Y592836D02*
Y598424D01*
X1185050Y592836D02*
X1202550D01*
X1185050D02*
Y598424D01*
X1202550D01*
X1356614Y592963D02*
Y606933D01*
X1386586D01*
Y592963D02*
Y606933D01*
X1356614Y592963D02*
X1386586D01*
X1369060Y606933D02*
Y612394D01*
X1374140D01*
Y606933D02*
Y612394D01*
X1369060Y606933D02*
X1374140D01*
X1383290Y587502D02*
Y592963D01*
X1378210Y587502D02*
X1383290D01*
X1378210D02*
Y592963D01*
X1383290D01*
X1364990Y587502D02*
Y592963D01*
X1359910Y587502D02*
X1364990D01*
X1359910D02*
Y592963D01*
X1364990D01*
X1209294Y485394D02*
X1229106D01*
X1209294Y479552D02*
Y485394D01*
Y479552D02*
X1229106D01*
Y485394D01*
X1209294Y530606D02*
X1229106D01*
Y536448D01*
X1209294D02*
X1229106D01*
X1209294Y530606D02*
Y536448D01*
X1205103Y492443D02*
X1212151Y485394D01*
X1226248D02*
X1233297Y492443D01*
Y485394D02*
Y530606D01*
X1205103D02*
X1233297D01*
X1205103Y485394D02*
Y530606D01*
Y485394D02*
X1233297D01*
X1286650Y592836D02*
X1304150D01*
X1286650D02*
Y626364D01*
X1304150D01*
Y592836D02*
Y626364D01*
X1286650Y620776D02*
Y626364D01*
X1304150D01*
Y620776D02*
Y626364D01*
X1286650Y620776D02*
X1304150D01*
Y592836D02*
Y598424D01*
X1286650Y592836D02*
X1304150D01*
X1286650D02*
Y598424D01*
X1304150D01*
X1566050Y592836D02*
X1583550D01*
X1566050D02*
Y626364D01*
X1583550D01*
Y592836D02*
Y626364D01*
X1566050Y620776D02*
Y626364D01*
X1583550D01*
Y620776D02*
Y626364D01*
X1566050Y620776D02*
X1583550D01*
Y592836D02*
Y598424D01*
X1566050Y592836D02*
X1583550D01*
X1566050D02*
Y598424D01*
X1583550D01*
X1464450Y592836D02*
X1481950D01*
X1464450D02*
Y626364D01*
X1481950D01*
Y592836D02*
Y626364D01*
X1464450Y620776D02*
Y626364D01*
X1481950D01*
Y620776D02*
Y626364D01*
X1464450Y620776D02*
X1481950D01*
Y592836D02*
Y598424D01*
X1464450Y592836D02*
X1481950D01*
X1464450D02*
Y598424D01*
X1481950D01*
X1591450Y491236D02*
X1608950D01*
X1591450D02*
Y524764D01*
X1608950D01*
Y491236D02*
Y524764D01*
X1591450Y519176D02*
Y524764D01*
X1608950D01*
Y519176D02*
Y524764D01*
X1591450Y519176D02*
X1608950D01*
Y491236D02*
Y496824D01*
X1591450Y491236D02*
X1608950D01*
X1591450D02*
Y496824D01*
X1608950D01*
X1515250Y491236D02*
X1532750D01*
X1515250D02*
Y524764D01*
X1532750D01*
Y491236D02*
Y524764D01*
X1515250Y519176D02*
Y524764D01*
X1532750D01*
Y519176D02*
Y524764D01*
X1515250Y519176D02*
X1532750D01*
Y491236D02*
Y496824D01*
X1515250Y491236D02*
X1532750D01*
X1515250D02*
Y496824D01*
X1532750D01*
X1439050Y491236D02*
X1456550D01*
X1439050D02*
Y524764D01*
X1456550D01*
Y491236D02*
Y524764D01*
X1439050Y519176D02*
Y524764D01*
X1456550D01*
Y519176D02*
Y524764D01*
X1439050Y519176D02*
X1456550D01*
Y491236D02*
Y496824D01*
X1439050Y491236D02*
X1456550D01*
X1439050D02*
Y496824D01*
X1456550D01*
X1387094Y358394D02*
X1406906D01*
X1387094Y352552D02*
Y358394D01*
Y352552D02*
X1406906D01*
Y358394D01*
X1387094Y403606D02*
X1406906D01*
Y409448D01*
X1387094D02*
X1406906D01*
X1387094Y403606D02*
Y409448D01*
X1382903Y365443D02*
X1389951Y358394D01*
X1404048D02*
X1411097Y365443D01*
Y358394D02*
Y403606D01*
X1382903D02*
X1411097D01*
X1382903Y358394D02*
Y403606D01*
Y358394D02*
X1411097D01*
X1286650Y364236D02*
X1304150D01*
X1286650D02*
Y397764D01*
X1304150D01*
Y364236D02*
Y397764D01*
X1286650Y392176D02*
Y397764D01*
X1304150D01*
Y392176D02*
Y397764D01*
X1286650Y392176D02*
X1304150D01*
Y364236D02*
Y369824D01*
X1286650Y364236D02*
X1304150D01*
X1286650D02*
Y369824D01*
X1304150D01*
D15*
X1228200Y364000D02*
Y398000D01*
X1210200Y364000D02*
Y398000D01*
X1228200D01*
X1210200Y364000D02*
X1228200D01*
X1507600D02*
Y398000D01*
X1489600Y364000D02*
Y398000D01*
X1507600D01*
X1489600Y364000D02*
X1507600D01*
X1214200Y381000D02*
X1224200D01*
X1219200Y376000D02*
Y386000D01*
X1228700Y361000D02*
Y401000D01*
X1209700Y361000D02*
Y401000D01*
X1228700D01*
X1209700Y361000D02*
X1228700D01*
X1493600Y381000D02*
X1503600D01*
X1498600Y376000D02*
Y386000D01*
X1508100Y361000D02*
Y401000D01*
X1489100Y361000D02*
Y401000D01*
X1508100D01*
X1489100Y361000D02*
X1508100D01*
M02*
